<svg width="23" height="24" viewBox="0 0 23 24" fill="none" xmlns="http://www.w3.org/2000/svg">
<path fill-rule="evenodd" clip-rule="evenodd" d="M20.6489 14.3392C20.675 14.2053 20.724 14.0844 20.7926 13.9799C20.8644 13.8721 20.9559 13.7774 21.0637 13.7055C21.1682 13.6336 21.2891 13.5814 21.4197 13.552C21.5438 13.5259 21.6745 13.5226 21.8084 13.5487C21.9423 13.5749 22.0632 13.6238 22.1677 13.6924C22.2755 13.7643 22.3702 13.8558 22.4421 13.9635C22.514 14.0681 22.5662 14.1889 22.5956 14.3196C22.6217 14.4437 22.625 14.5744 22.5989 14.7083C22.5695 14.8651 22.5368 15.0218 22.5009 15.1754C22.465 15.3322 22.4258 15.4889 22.38 15.6425C22.3343 15.8025 22.2886 15.956 22.2428 16.103C22.1971 16.2435 22.1449 16.3937 22.0828 16.557C22.024 16.7171 21.9652 16.8673 21.9097 17.0013C21.8541 17.1352 21.7888 17.2822 21.7137 17.4422C21.6484 17.5859 21.5765 17.7297 21.4981 17.8734C21.423 18.0138 21.3479 18.1543 21.2662 18.2947L21.2629 18.3013C20.884 18.9578 20.4463 19.5654 19.9629 20.1174C19.4664 20.6857 18.921 21.192 18.3395 21.6395C17.7451 22.0968 17.1114 22.4888 16.4451 22.8187C15.7722 23.1518 15.0666 23.4131 14.3481 23.6091C13.6327 23.8018 12.8945 23.9227 12.1498 23.9749C11.4149 24.0239 10.6734 24.0011 9.92866 23.9064C9.20026 23.8116 8.4784 23.645 7.7696 23.4066C7.07386 23.1714 6.39446 22.8677 5.73792 22.4953L5.66279 22.4528C5.00626 22.0707 4.40198 21.633 3.8565 21.1528C3.29468 20.6596 2.79166 20.1141 2.34417 19.5327C1.89341 18.9415 1.50145 18.3078 1.17481 17.6415C0.844911 16.9686 0.580336 16.2696 0.390887 15.5575C0.198172 14.8422 0.0773163 14.104 0.0250545 13.3593C-0.023941 12.6243 -0.00107641 11.8829 0.0936481 11.1381C0.188373 10.413 0.354957 9.69115 0.593401 8.98235C0.828579 8.28661 1.13235 7.60721 1.50472 6.95394L1.52431 6.91801C1.54391 6.88208 1.55045 6.87228 1.55698 6.86248C1.93914 6.21247 2.3703 5.61473 2.84719 5.07251C3.34041 4.5107 3.88589 4.00768 4.46731 3.56019C5.05852 3.10943 5.69219 2.71746 6.35853 2.39083C7.0314 2.06093 7.7304 1.79635 8.44247 1.6069C9.16107 1.41419 9.90253 1.29006 10.6505 1.24107C11.3887 1.19207 12.1367 1.21494 12.8815 1.31293C13.6131 1.41092 14.3415 1.5775 15.0503 1.81922C15.7428 2.05439 16.4222 2.36143 17.0853 2.7436L17.0951 2.75013C17.2094 2.81872 17.3041 2.90365 17.3825 3.0049C17.4609 3.10943 17.5197 3.22702 17.5524 3.34787C17.585 3.47199 17.5948 3.60265 17.5785 3.7333C17.5621 3.86069 17.5197 3.98808 17.4544 4.1024C17.389 4.21999 17.3008 4.31798 17.1996 4.39311C17.0951 4.47477 16.9742 4.53356 16.8501 4.56623C16.726 4.59889 16.5953 4.60869 16.4647 4.59236C16.3373 4.57603 16.2099 4.53356 16.0956 4.46824C15.5533 4.15466 14.9883 3.90315 14.4134 3.70717C13.8222 3.50792 13.2244 3.36747 12.6234 3.28908C12.0093 3.20742 11.392 3.19109 10.7779 3.23028C10.1638 3.26948 9.55303 3.374 8.95529 3.53079C8.35754 3.69084 7.7794 3.90969 7.22738 4.1808C6.67863 4.4519 6.15275 4.77527 5.65953 5.15417C5.17611 5.52327 4.72862 5.94463 4.32032 6.41172C3.92182 6.86901 3.56252 7.36876 3.24895 7.91098L3.21956 7.96324C2.91905 8.48913 2.67734 9.03461 2.48789 9.59316C2.28864 10.1844 2.14819 10.7821 2.0698 11.3799C1.98814 11.9939 1.97181 12.6113 2.011 13.2254C2.0502 13.8394 2.15472 14.4502 2.31151 15.048C2.47156 15.6457 2.69041 16.2239 2.96151 16.7759C3.23262 17.3246 3.55599 17.8505 3.93489 18.3437C4.30399 18.8272 4.72535 19.2747 5.18917 19.6829C5.6432 20.0814 6.14295 20.4407 6.6917 20.7576C7.23391 21.0711 7.79573 21.3227 8.37061 21.5186C8.96182 21.7179 9.55956 21.8583 10.1606 21.9367C10.7747 22.0184 11.392 22.0347 12.0061 21.9955C12.6201 21.9563 13.231 21.8518 13.8287 21.695C14.4264 21.535 15.0046 21.3161 15.5599 21.045C16.1086 20.7739 16.6345 20.4505 17.1277 20.0716C17.6111 19.7025 18.0586 19.2845 18.4669 18.8174C18.8654 18.3633 19.2247 17.8603 19.5416 17.3148C19.6069 17.2038 19.669 17.0895 19.7277 16.9751C19.78 16.8771 19.8388 16.753 19.9107 16.6093C19.9597 16.508 20.0119 16.3839 20.0707 16.2435C20.123 16.1161 20.172 15.9952 20.2144 15.8809C20.2569 15.7633 20.2994 15.6425 20.3418 15.5151C20.3843 15.3877 20.4202 15.2603 20.4561 15.1329C20.4953 14.9925 20.528 14.8618 20.5541 14.7475C20.5933 14.6038 20.6227 14.4731 20.6489 14.3392ZM18.3591 12.7419H15.7559C15.7787 12.951 15.8342 13.1045 15.9257 13.209C16.0498 13.356 16.2164 13.4279 16.4157 13.4279C16.543 13.4279 16.6639 13.3952 16.7782 13.3331C16.8501 13.2939 16.9252 13.2221 17.0036 13.1208L18.284 13.2384C18.088 13.5781 17.8529 13.8231 17.5752 13.9701C17.2976 14.1171 16.9023 14.1922 16.383 14.1922C15.9355 14.1922 15.5827 14.1301 15.3214 14.0027C15.0634 13.8754 14.8511 13.6761 14.6812 13.3985C14.5114 13.1241 14.4264 12.8007 14.4264 12.4251C14.4264 11.8959 14.5963 11.468 14.936 11.1381C15.2757 10.8115 15.7428 10.6449 16.3438 10.6449C16.8272 10.6449 17.2127 10.7201 17.4936 10.867C17.7745 11.014 17.9868 11.2263 18.1338 11.504C18.2808 11.7816 18.3526 12.1442 18.3526 12.5917V12.7419H18.3591ZM17.0363 12.1181C17.0101 11.8665 16.9415 11.6869 16.8338 11.5791C16.7227 11.4713 16.579 11.4158 16.4026 11.4158C16.1968 11.4158 16.0302 11.4974 15.9061 11.6608C15.8277 11.762 15.7787 11.9155 15.7559 12.1181H17.0363ZM12.7475 10.7233H13.9659V13.9244L13.9692 14.0746C13.9692 14.2869 13.9234 14.4894 13.832 14.6821C13.7405 14.8749 13.6229 15.0316 13.4727 15.1492C13.3224 15.2668 13.133 15.355 12.9011 15.4073C12.6691 15.4595 12.4046 15.4889 12.1073 15.4889C11.4279 15.4889 10.9576 15.3877 10.7028 15.1819C10.448 14.9794 10.3206 14.705 10.3206 14.362C10.3206 14.3196 10.3239 14.2608 10.3272 14.1889L11.588 14.3326C11.6206 14.4502 11.6696 14.5319 11.735 14.5744C11.8297 14.6397 11.9505 14.6723 12.0943 14.6723C12.2804 14.6723 12.4209 14.6234 12.5124 14.5221C12.6038 14.4208 12.6495 14.2477 12.6495 13.9995V13.4867C12.5222 13.6369 12.3948 13.748 12.2674 13.8166C12.0681 13.9211 11.8526 13.9766 11.6206 13.9766C11.1666 13.9766 10.8008 13.7774 10.5231 13.3821C10.3272 13.1012 10.2259 12.7289 10.2259 12.2683C10.2259 11.7392 10.3533 11.3374 10.6081 11.0598C10.8628 10.7821 11.196 10.6449 11.6108 10.6449C11.8754 10.6449 12.091 10.6907 12.2641 10.7788C12.434 10.867 12.594 11.0173 12.7443 11.2231V10.7233H12.7475ZM11.5259 12.3663C11.5259 12.6113 11.5782 12.7909 11.6827 12.9118C11.7872 13.0294 11.9244 13.0882 12.0943 13.0882C12.2543 13.0882 12.3915 13.0261 12.4993 12.9052C12.6103 12.7844 12.6626 12.5982 12.6626 12.3532C12.6626 12.105 12.6038 11.9188 12.4895 11.7882C12.3752 11.6575 12.2347 11.5922 12.0681 11.5922C11.9015 11.5922 11.7709 11.651 11.6729 11.7718C11.5749 11.8894 11.5259 12.0887 11.5259 12.3663ZM8.42614 13.3397H6.77989L6.55451 14.1105H5.07812L6.83542 9.42984H8.41307L10.1736 14.1105H8.66131L8.42614 13.3397ZM8.12236 12.3304L7.60628 10.6482L7.09346 12.3304H8.12236ZM16.0792 7.77379C15.9486 7.81626 15.8179 7.82932 15.6938 7.81952C15.5631 7.80972 15.4357 7.77053 15.3214 7.71173C15.2071 7.65294 15.1026 7.57128 15.0177 7.47002C14.936 7.37203 14.8707 7.26097 14.8282 7.13359C14.7857 7.00293 14.7727 6.87228 14.7825 6.74815C14.7923 6.61423 14.8315 6.48685 14.8903 6.37252C14.9491 6.2582 15.0307 6.15368 15.132 6.07202C15.23 5.99036 15.341 5.92503 15.4684 5.88257L19.2051 4.68708L17.523 1.45665C17.4609 1.33579 17.425 1.21167 17.4152 1.08428C17.4054 0.95363 17.4184 0.822975 17.4576 0.698853C17.4936 0.574732 17.5589 0.457143 17.6438 0.355885C17.7255 0.257894 17.8267 0.172969 17.9476 0.110908C18.0684 0.0488473 18.1926 0.0129174 18.3199 0.00311828C18.4506 -0.0066808 18.5813 0.00638464 18.7054 0.045581C18.8295 0.0847773 18.9471 0.146838 19.0483 0.231764C19.1463 0.313423 19.228 0.41468 19.2901 0.535535L21.5177 4.8112C21.5275 4.83407 21.5373 4.86346 21.5504 4.88306L21.5667 4.92879L21.5798 4.97125C21.619 5.09864 21.632 5.22603 21.6222 5.35015C21.6124 5.48407 21.5732 5.61146 21.5144 5.72578C21.4557 5.84011 21.374 5.94463 21.2727 6.02629C21.1747 6.10795 21.0637 6.17328 20.9363 6.21574L16.0792 7.77379Z" fill="#C4C4C4"/>
</svg>
