<svg width="30" height="31" viewBox="0 0 30 31" fill="none" xmlns="http://www.w3.org/2000/svg">
<path d="M24.0875 6.96397C22.425 6.18367 20.625 5.61732 18.75 5.2901C18.7336 5.28957 18.7172 5.29267 18.7021 5.2992C18.687 5.30572 18.6735 5.3155 18.6625 5.32785C18.4375 5.74318 18.175 6.28435 18 6.69967C16.0113 6.39762 13.9888 6.39762 12 6.69967C11.825 6.27177 11.5625 5.74318 11.325 5.32785C11.3125 5.30268 11.275 5.2901 11.2375 5.2901C9.36252 5.61732 7.57502 6.18367 5.90002 6.96397C5.88752 6.96397 5.87502 6.97655 5.86252 6.98914C2.46252 12.1114 1.52502 17.0953 1.98752 22.0288C1.98752 22.054 2.00002 22.0792 2.02502 22.0917C4.27502 23.753 6.43752 24.7599 8.57502 25.4269C8.61252 25.4395 8.65002 25.4269 8.66252 25.4017C9.16252 24.7095 9.61252 23.9796 10 23.2118C10.025 23.1615 10 23.1112 9.95002 23.0986C9.23752 22.8217 8.56252 22.4945 7.90002 22.1169C7.85002 22.0917 7.85002 22.0162 7.88752 21.9785C8.02502 21.8778 8.16252 21.7645 8.30002 21.6638C8.32502 21.6387 8.36252 21.6387 8.38752 21.6512C12.6875 23.6272 17.325 23.6272 21.575 21.6512C21.6 21.6387 21.6375 21.6387 21.6625 21.6638C21.8 21.7771 21.9375 21.8778 22.075 21.9911C22.125 22.0288 22.125 22.1043 22.0625 22.1295C21.4125 22.5196 20.725 22.8343 20.0125 23.1112C19.9625 23.1237 19.95 23.1867 19.9625 23.2244C20.3625 23.9921 20.8125 24.7221 21.3 25.4143C21.3375 25.4269 21.375 25.4395 21.4125 25.4269C23.5625 24.7599 25.725 23.753 27.975 22.0917C28 22.0792 28.0125 22.054 28.0125 22.0288C28.5625 16.3276 27.1 11.3815 24.1375 6.98914C24.125 6.97655 24.1125 6.96397 24.0875 6.96397ZM10.65 19.0209C9.36252 19.0209 8.28752 17.8253 8.28752 16.3528C8.28752 14.8802 9.33753 13.6846 10.65 13.6846C11.975 13.6846 13.025 14.8928 13.0125 16.3528C13.0125 17.8253 11.9625 19.0209 10.65 19.0209ZM19.3625 19.0209C18.075 19.0209 17 17.8253 17 16.3528C17 14.8802 18.05 13.6846 19.3625 13.6846C20.6875 13.6846 21.7375 14.8928 21.725 16.3528C21.725 17.8253 20.6875 19.0209 19.3625 19.0209Z" fill="white"/>
</svg>
