<svg width="15" height="16" viewBox="0 0 15 16" fill="none" xmlns="http://www.w3.org/2000/svg">
<path d="M4.854 6.34426L4.5 5.97987L3.793 6.70968L4.146 7.0751L4.854 6.34426ZM7.5 9.80645L7.146 10.1719L7.5 10.5363L7.854 10.1719L7.5 9.80645ZM10.854 7.0751L11.207 6.70968L10.5 5.97987L10.146 6.34426L10.854 7.0751ZM4.146 7.0751L7.146 10.1719L7.854 9.44103L4.854 6.34426L4.146 7.0751ZM7.854 10.1719L10.854 7.0751L10.146 6.34426L7.146 9.44103L7.854 10.1719ZM14 7.74194C14 8.62306 13.8319 9.49556 13.5052 10.3096C13.1786 11.1237 12.6998 11.8633 12.0962 12.4864C11.4926 13.1094 10.7761 13.6037 9.98744 13.9409C9.19883 14.2781 8.35359 14.4516 7.5 14.4516V15.4839C9.48912 15.4839 11.3968 14.6682 12.8033 13.2163C14.2098 11.7644 15 9.79522 15 7.74194H14ZM7.5 1.03226C8.35359 1.03226 9.19883 1.20581 9.98744 1.543C10.7761 1.88019 11.4926 2.37443 12.0962 2.99748C12.6998 3.62053 13.1786 4.3602 13.5052 5.17425C13.8319 5.98831 14 6.86081 14 7.74194H15C15 5.68865 14.2098 3.71945 12.8033 2.26756C11.3968 0.815666 9.48912 0 7.5 0V1.03226ZM1 7.74194C1 5.96242 1.68482 4.25579 2.90381 2.99748C4.12279 1.73917 5.77609 1.03226 7.5 1.03226V0C5.51088 0 3.60322 0.815666 2.1967 2.26756C0.790176 3.71945 0 5.68865 0 7.74194H1ZM0 7.74194C0 9.79522 0.790176 11.7644 2.1967 13.2163C3.60322 14.6682 5.51088 15.4839 7.5 15.4839V14.4516C5.77609 14.4516 4.12279 13.7447 2.90381 12.4864C1.68482 11.2281 1 9.52145 1 7.74194H0Z" fill="white"/>
</svg>
