<svg width="30" height="30" viewBox="0 0 30 30" fill="none" xmlns="http://www.w3.org/2000/svg">
<path d="M15 4.99981H7C5.89543 4.99981 5 5.89524 5 6.99981V22.9998C5 24.1044 5.89543 24.9998 7 24.9998H23C24.1046 24.9998 25 24.1044 25 22.9998V14.9998M23.0178 10.5176L24.375 9.16037C25.3513 8.18406 25.3513 6.60115 24.3749 5.62485C23.3986 4.64853 21.8157 4.64854 20.8394 5.62486L19.4822 6.98203M23.0178 10.5176L15.4724 18.063C15.1234 18.412 14.6789 18.6499 14.1949 18.7467L10.5178 19.4821L11.2532 15.805C11.35 15.321 11.5879 14.8765 11.9369 14.5275L19.4822 6.98203M23.0178 10.5176L19.4822 6.98203" stroke="white" stroke-width="2" stroke-linecap="round" stroke-linejoin="round"/>
</svg>
