<svg width="467" height="43" viewBox="0 0 467 43" fill="none" xmlns="http://www.w3.org/2000/svg">
<path d="M6.36 8.6V15.6H15.76V20.04H6.36V27.44H16.96V32H0.76V4.04H16.96V8.6H6.36ZM34.2891 32L29.7291 25.12L25.6891 32H19.6891L26.9291 20.88L19.6091 9.84H25.9291L30.4491 16.68L34.5291 9.84H40.5291L33.2491 20.88L40.6091 32H34.2891ZM49.2506 13.04C49.9706 12.0267 50.9573 11.1867 52.2106 10.52C53.4906 9.82667 54.944 9.48 56.5706 9.48C58.464 9.48 60.1706 9.94667 61.6906 10.88C63.2373 11.8133 64.4506 13.1467 65.3306 14.88C66.2373 16.5867 66.6906 18.5733 66.6906 20.84C66.6906 23.1067 66.2373 25.12 65.3306 26.88C64.4506 28.6133 63.2373 29.96 61.6906 30.92C60.1706 31.88 58.464 32.36 56.5706 32.36C54.944 32.36 53.504 32.0267 52.2506 31.36C51.024 30.6933 50.024 29.8533 49.2506 28.84V42.56H43.6506V9.84H49.2506V13.04ZM60.9706 20.84C60.9706 19.5067 60.6906 18.36 60.1306 17.4C59.5973 16.4133 58.8773 15.6667 57.9706 15.16C57.0906 14.6533 56.1306 14.4 55.0906 14.4C54.0773 14.4 53.1173 14.6667 52.2106 15.2C51.3306 15.7067 50.6106 16.4533 50.0506 17.44C49.5173 18.4267 49.2506 19.5867 49.2506 20.92C49.2506 22.2533 49.5173 23.4133 50.0506 24.4C50.6106 25.3867 51.3306 26.1467 52.2106 26.68C53.1173 27.1867 54.0773 27.44 55.0906 27.44C56.1306 27.44 57.0906 27.1733 57.9706 26.64C58.8773 26.1067 59.5973 25.3467 60.1306 24.36C60.6906 23.3733 60.9706 22.2 60.9706 20.84ZM76.36 2.4V32H70.76V2.4H76.36ZM91.7328 32.36C89.5995 32.36 87.6795 31.8933 85.9728 30.96C84.2661 30 82.9195 28.6533 81.9328 26.92C80.9728 25.1867 80.4928 23.1867 80.4928 20.92C80.4928 18.6533 80.9861 16.6533 81.9728 14.92C82.9861 13.1867 84.3595 11.8533 86.0928 10.92C87.8261 9.96 89.7595 9.48 91.8928 9.48C94.0261 9.48 95.9595 9.96 97.6928 10.92C99.4261 11.8533 100.786 13.1867 101.773 14.92C102.786 16.6533 103.293 18.6533 103.293 20.92C103.293 23.1867 102.773 25.1867 101.733 26.92C100.719 28.6533 99.3328 30 97.5728 30.96C95.8395 31.8933 93.8928 32.36 91.7328 32.36ZM91.7328 27.48C92.7461 27.48 93.6928 27.24 94.5728 26.76C95.4795 26.2533 96.1995 25.5067 96.7328 24.52C97.2661 23.5333 97.5328 22.3333 97.5328 20.92C97.5328 18.8133 96.9728 17.2 95.8528 16.08C94.7595 14.9333 93.4128 14.36 91.8128 14.36C90.2128 14.36 88.8661 14.9333 87.7728 16.08C86.7061 17.2 86.1728 18.8133 86.1728 20.92C86.1728 23.0267 86.6928 24.6533 87.7328 25.8C88.7995 26.92 90.1328 27.48 91.7328 27.48ZM113.001 13.28C113.721 12.1067 114.654 11.1867 115.801 10.52C116.974 9.85333 118.307 9.52 119.801 9.52V15.4H118.321C116.561 15.4 115.227 15.8133 114.321 16.64C113.441 17.4667 113.001 18.9067 113.001 20.96V32H107.401V9.84H113.001V13.28ZM144.173 20.44C144.173 21.24 144.119 21.96 144.013 22.6H127.813C127.946 24.2 128.506 25.4533 129.493 26.36C130.479 27.2667 131.693 27.72 133.133 27.72C135.213 27.72 136.693 26.8267 137.573 25.04H143.613C142.973 27.1733 141.746 28.9333 139.933 30.32C138.119 31.68 135.893 32.36 133.253 32.36C131.119 32.36 129.199 31.8933 127.493 30.96C125.813 30 124.493 28.6533 123.533 26.92C122.599 25.1867 122.132 23.1867 122.132 20.92C122.132 18.6267 122.599 16.6133 123.533 14.88C124.466 13.1467 125.773 11.8133 127.453 10.88C129.133 9.94667 131.066 9.48 133.253 9.48C135.359 9.48 137.239 9.93333 138.893 10.84C140.573 11.7467 141.866 13.04 142.773 14.72C143.706 16.3733 144.173 18.28 144.173 20.44ZM138.373 18.84C138.346 17.4 137.826 16.2533 136.813 15.4C135.799 14.52 134.559 14.08 133.093 14.08C131.706 14.08 130.533 14.5067 129.573 15.36C128.639 16.1867 128.066 17.3467 127.853 18.84H138.373ZM179.991 4.08L170.551 22.28V32H164.951V22.28L155.471 4.08H161.791L167.791 16.84L173.751 4.08H179.991ZM193.061 32.36C190.928 32.36 189.008 31.8933 187.301 30.96C185.594 30 184.248 28.6533 183.261 26.92C182.301 25.1867 181.821 23.1867 181.821 20.92C181.821 18.6533 182.314 16.6533 183.301 14.92C184.314 13.1867 185.688 11.8533 187.421 10.92C189.154 9.96 191.088 9.48 193.221 9.48C195.354 9.48 197.288 9.96 199.021 10.92C200.754 11.8533 202.114 13.1867 203.101 14.92C204.114 16.6533 204.621 18.6533 204.621 20.92C204.621 23.1867 204.101 25.1867 203.061 26.92C202.048 28.6533 200.661 30 198.901 30.96C197.168 31.8933 195.221 32.36 193.061 32.36ZM193.061 27.48C194.074 27.48 195.021 27.24 195.901 26.76C196.808 26.2533 197.528 25.5067 198.061 24.52C198.594 23.5333 198.861 22.3333 198.861 20.92C198.861 18.8133 198.301 17.2 197.181 16.08C196.088 14.9333 194.741 14.36 193.141 14.36C191.541 14.36 190.194 14.9333 189.101 16.08C188.034 17.2 187.501 18.8133 187.501 20.92C187.501 23.0267 188.021 24.6533 189.061 25.8C190.128 26.92 191.461 27.48 193.061 27.48ZM229.649 9.84V32H224.009V29.2C223.289 30.16 222.342 30.92 221.169 31.48C220.022 32.0133 218.769 32.28 217.409 32.28C215.675 32.28 214.142 31.92 212.809 31.2C211.475 30.4533 210.422 29.3733 209.649 27.96C208.902 26.52 208.529 24.8133 208.529 22.84V9.84H214.129V22.04C214.129 23.8 214.569 25.16 215.449 26.12C216.329 27.0533 217.529 27.52 219.049 27.52C220.595 27.52 221.809 27.0533 222.689 26.12C223.569 25.16 224.009 23.8 224.009 22.04V9.84H229.649ZM240.774 13.28C241.494 12.1067 242.427 11.1867 243.574 10.52C244.747 9.85333 246.081 9.52 247.574 9.52V15.4H246.094C244.334 15.4 243.001 15.8133 242.094 16.64C241.214 17.4667 240.774 18.9067 240.774 20.96V32H235.174V9.84H240.774V13.28ZM280.317 12.48C279.677 11.3067 278.797 10.4133 277.677 9.8C276.557 9.18667 275.251 8.88 273.757 8.88C272.104 8.88 270.637 9.25333 269.357 10C268.077 10.7467 267.077 11.8133 266.357 13.2C265.637 14.5867 265.277 16.1867 265.277 18C265.277 19.8667 265.637 21.4933 266.357 22.88C267.104 24.2667 268.131 25.3333 269.437 26.08C270.744 26.8267 272.264 27.2 273.997 27.2C276.131 27.2 277.877 26.64 279.237 25.52C280.597 24.3733 281.491 22.7867 281.917 20.76H272.317V16.48H287.437V21.36C287.064 23.3067 286.264 25.1067 285.037 26.76C283.811 28.4133 282.224 29.7467 280.277 30.76C278.357 31.7467 276.197 32.24 273.797 32.24C271.104 32.24 268.664 31.64 266.477 30.44C264.317 29.2133 262.611 27.52 261.357 25.36C260.131 23.2 259.517 20.7467 259.517 18C259.517 15.2533 260.131 12.8 261.357 10.64C262.611 8.45333 264.317 6.76 266.477 5.56C268.664 4.33333 271.091 3.72 273.757 3.72C276.904 3.72 279.637 4.49333 281.957 6.04C284.277 7.56 285.877 9.70667 286.757 12.48H280.317ZM294.42 7.2C293.434 7.2 292.607 6.89333 291.94 6.28C291.3 5.64 290.98 4.85333 290.98 3.92C290.98 2.98667 291.3 2.21333 291.94 1.6C292.607 0.959998 293.434 0.639998 294.42 0.639998C295.407 0.639998 296.22 0.959998 296.86 1.6C297.527 2.21333 297.86 2.98667 297.86 3.92C297.86 4.85333 297.527 5.64 296.86 6.28C296.22 6.89333 295.407 7.2 294.42 7.2ZM297.18 9.84V32H291.58V9.84H297.18ZM308.313 13.28C309.033 12.1067 309.966 11.1867 311.113 10.52C312.286 9.85333 313.62 9.52 315.113 9.52V15.4H313.633C311.873 15.4 310.54 15.8133 309.633 16.64C308.753 17.4667 308.313 18.9067 308.313 20.96V32H302.713V9.84H308.313V13.28ZM324.485 2.4V32H318.885V2.4H324.485ZM340.178 14.44H336.298V32H330.618V14.44H328.098V9.84H330.618V8.72C330.618 6 331.391 4 332.938 2.72C334.484 1.44 336.818 0.839999 339.938 0.92V5.64C338.578 5.61333 337.631 5.84 337.098 6.32C336.564 6.8 336.298 7.66667 336.298 8.92V9.84H340.178V14.44ZM349.407 13.28C350.127 12.1067 351.06 11.1867 352.207 10.52C353.38 9.85333 354.714 9.52 356.207 9.52V15.4H354.727C352.967 15.4 351.634 15.8133 350.727 16.64C349.847 17.4667 349.407 18.9067 349.407 20.96V32H343.807V9.84H349.407V13.28ZM362.819 7.2C361.832 7.2 361.005 6.89333 360.339 6.28C359.699 5.64 359.379 4.85333 359.379 3.92C359.379 2.98667 359.699 2.21333 360.339 1.6C361.005 0.959998 361.832 0.639998 362.819 0.639998C363.805 0.639998 364.619 0.959998 365.259 1.6C365.925 2.21333 366.259 2.98667 366.259 3.92C366.259 4.85333 365.925 5.64 365.259 6.28C364.619 6.89333 363.805 7.2 362.819 7.2ZM365.579 9.84V32H359.979V9.84H365.579ZM391.712 20.44C391.712 21.24 391.658 21.96 391.552 22.6H375.352C375.485 24.2 376.045 25.4533 377.032 26.36C378.018 27.2667 379.232 27.72 380.672 27.72C382.752 27.72 384.232 26.8267 385.112 25.04H391.152C390.512 27.1733 389.285 28.9333 387.472 30.32C385.658 31.68 383.432 32.36 380.792 32.36C378.658 32.36 376.738 31.8933 375.032 30.96C373.352 30 372.032 28.6533 371.072 26.92C370.138 25.1867 369.672 23.1867 369.672 20.92C369.672 18.6267 370.138 16.6133 371.072 14.88C372.005 13.1467 373.312 11.8133 374.992 10.88C376.672 9.94667 378.605 9.48 380.792 9.48C382.898 9.48 384.778 9.93333 386.432 10.84C388.112 11.7467 389.405 13.04 390.312 14.72C391.245 16.3733 391.712 18.28 391.712 20.44ZM385.912 18.84C385.885 17.4 385.365 16.2533 384.352 15.4C383.338 14.52 382.098 14.08 380.632 14.08C379.245 14.08 378.072 14.5067 377.112 15.36C376.178 16.1867 375.605 17.3467 375.392 18.84H385.912ZM408.079 9.52C410.719 9.52 412.852 10.36 414.479 12.04C416.106 13.6933 416.919 16.0133 416.919 19V32H411.319V19.76C411.319 18 410.879 16.6533 409.999 15.72C409.119 14.76 407.919 14.28 406.399 14.28C404.852 14.28 403.626 14.76 402.719 15.72C401.839 16.6533 401.399 18 401.399 19.76V32H395.799V9.84H401.399V12.6C402.146 11.64 403.092 10.8933 404.239 10.36C405.412 9.8 406.692 9.52 408.079 9.52ZM420.804 20.84C420.804 18.6 421.244 16.6133 422.124 14.88C423.031 13.1467 424.258 11.8133 425.804 10.88C427.351 9.94667 429.071 9.48 430.964 9.48C432.404 9.48 433.778 9.8 435.084 10.44C436.391 11.0533 437.431 11.88 438.204 12.92V2.4H443.884V32H438.204V28.72C437.511 29.8133 436.538 30.6933 435.284 31.36C434.031 32.0267 432.578 32.36 430.924 32.36C429.058 32.36 427.351 31.88 425.804 30.92C424.258 29.96 423.031 28.6133 422.124 26.88C421.244 25.12 420.804 23.1067 420.804 20.84ZM438.244 20.92C438.244 19.56 437.978 18.4 437.444 17.44C436.911 16.4533 436.191 15.7067 435.284 15.2C434.378 14.6667 433.404 14.4 432.364 14.4C431.324 14.4 430.364 14.6533 429.484 15.16C428.604 15.6667 427.884 16.4133 427.324 17.4C426.791 18.36 426.524 19.5067 426.524 20.84C426.524 22.1733 426.791 23.3467 427.324 24.36C427.884 25.3467 428.604 26.1067 429.484 26.64C430.391 27.1733 431.351 27.44 432.364 27.44C433.404 27.44 434.378 27.1867 435.284 26.68C436.191 26.1467 436.911 25.4 437.444 24.44C437.978 23.4533 438.244 22.28 438.244 20.92ZM457.834 32.36C456.02 32.36 454.394 32.04 452.954 31.4C451.514 30.7333 450.367 29.84 449.514 28.72C448.687 27.6 448.234 26.36 448.154 25H453.794C453.9 25.8533 454.314 26.56 455.034 27.12C455.78 27.68 456.7 27.96 457.794 27.96C458.86 27.96 459.687 27.7467 460.274 27.32C460.887 26.8933 461.194 26.3467 461.194 25.68C461.194 24.96 460.82 24.4267 460.074 24.08C459.354 23.7067 458.194 23.3067 456.594 22.88C454.94 22.48 453.58 22.0667 452.514 21.64C451.474 21.2133 450.567 20.56 449.794 19.68C449.047 18.8 448.674 17.6133 448.674 16.12C448.674 14.8933 449.02 13.7733 449.714 12.76C450.434 11.7467 451.447 10.9467 452.754 10.36C454.087 9.77333 455.647 9.48 457.434 9.48C460.074 9.48 462.18 10.1467 463.754 11.48C465.327 12.7867 466.194 14.56 466.354 16.8H460.994C460.914 15.92 460.54 15.2267 459.874 14.72C459.234 14.1867 458.367 13.92 457.274 13.92C456.26 13.92 455.474 14.1067 454.914 14.48C454.38 14.8533 454.114 15.3733 454.114 16.04C454.114 16.7867 454.487 17.36 455.234 17.76C455.98 18.1333 457.14 18.52 458.714 18.92C460.314 19.32 461.634 19.7333 462.674 20.16C463.714 20.5867 464.607 21.2533 465.354 22.16C466.127 23.04 466.527 24.2133 466.554 25.68C466.554 26.96 466.194 28.1067 465.474 29.12C464.78 30.1333 463.767 30.9333 462.434 31.52C461.127 32.08 459.594 32.36 457.834 32.36Z" fill="url(#paint0_linear_337_5879)"/>
<defs>
<linearGradient id="paint0_linear_337_5879" x1="-2" y1="18" x2="469" y2="18" gradientUnits="userSpaceOnUse">
<stop stop-color="#DB985B"/>
<stop offset="1" stop-color="#C62744"/>
</linearGradient>
</defs>
</svg>
