<svg width="40" height="42" viewBox="0 0 40 42" fill="none" xmlns="http://www.w3.org/2000/svg">
<path d="M28.6667 24.2499C28.6667 28.8595 25.8305 30.8821 23.639 31.5635C23.5576 31.5906 23.4703 31.5951 23.3865 31.5765C23.0735 31.5018 22.9185 31.0858 23.1439 30.7629C24.0972 29.3914 25.2 27.3006 25.2 25.3333C25.2 23.2208 23.419 20.7258 22.028 19.1864C21.7106 18.8354 21.156 19.0673 21.1386 19.5418C21.0812 21.1126 20.8331 23.2121 19.765 24.8588C19.7271 24.9203 19.6749 24.9717 19.6128 25.0086C19.5507 25.0455 19.4806 25.0668 19.4085 25.0706C19.3363 25.0745 19.2644 25.0607 19.1987 25.0306C19.1331 25.0005 19.0757 24.9549 19.0315 24.8978C18.6979 24.4753 18.3642 23.9542 18.0305 23.5414C17.8507 23.3204 17.5257 23.3172 17.3188 23.5133C16.5095 24.2792 15.3775 25.473 15.3775 26.9583C15.3775 27.9658 15.7675 29.022 16.2084 29.8724C16.4272 30.2949 16.0968 30.7943 15.6862 30.7066C15.6401 30.696 15.5957 30.6792 15.554 30.6568C13.6225 29.6449 11.3334 27.5909 11.3334 24.2499C11.3334 20.8418 16.0025 16.1195 17.7857 11.6583C18.0674 10.9542 18.934 10.6238 19.5375 11.0831C23.1883 13.8651 28.6667 19.2428 28.6667 24.2499Z" fill="#FF544E"/>
<path d="M15.3774 26.9582C15.3774 27.9657 15.7674 29.022 16.2084 29.8724C16.4272 30.2949 16.0968 30.7954 15.6862 30.7066C16.2084 31.2916 19.649 31.7433 23.3865 31.5765C23.0734 31.5017 22.9185 31.0857 23.1439 30.7629C24.0972 29.3925 25.2 27.3006 25.2 25.3332C25.2 23.2207 23.419 20.7258 22.028 19.1864C21.7106 18.8354 21.1559 19.0672 21.1386 19.5417C21.0812 21.1126 20.8331 23.2121 19.7649 24.8587C19.7271 24.9203 19.6749 24.9717 19.6128 25.0086C19.5507 25.0455 19.4806 25.0668 19.4085 25.0706C19.3363 25.0745 19.2644 25.0607 19.1987 25.0306C19.133 25.0005 19.0757 24.9549 19.0315 24.8977C18.6979 24.4752 18.3642 23.9542 18.0305 23.5425C17.8507 23.3204 17.5257 23.3172 17.3188 23.5132C16.5095 24.2792 15.3774 25.473 15.3774 26.9582Z" fill="#F6883D"/>
</svg>
