<svg width="679" height="112" viewBox="0 0 679 112" fill="none" xmlns="http://www.w3.org/2000/svg">
<path d="M40.08 16.08L32.28 44H25.68L20.44 24.12L14.96 44L8.4 44.04L0.88 16.08H6.88L11.8 37.76L17.48 16.08H23.72L29.08 37.64L34.04 16.08H40.08ZM55.0166 21.52C56.6966 21.52 58.1899 21.8933 59.4966 22.64C60.8032 23.36 61.8166 24.44 62.5366 25.88C63.2832 27.2933 63.6566 29 63.6566 31V44H58.0566V31.76C58.0566 30 57.6166 28.6533 56.7366 27.72C55.8566 26.76 54.6566 26.28 53.1366 26.28C51.5899 26.28 50.3632 26.76 49.4566 27.72C48.5766 28.6533 48.1366 30 48.1366 31.76V44H42.5366V14.4H48.1366V24.6C48.8566 23.64 49.8166 22.8933 51.0166 22.36C52.2166 21.8 53.5499 21.52 55.0166 21.52ZM88.3819 32.44C88.3819 33.24 88.3285 33.96 88.2219 34.6H72.0219C72.1552 36.2 72.7152 37.4533 73.7019 38.36C74.6885 39.2667 75.9019 39.72 77.3419 39.72C79.4219 39.72 80.9019 38.8267 81.7819 37.04H87.8219C87.1819 39.1733 85.9552 40.9333 84.1419 42.32C82.3285 43.68 80.1019 44.36 77.4619 44.36C75.3285 44.36 73.4085 43.8933 71.7019 42.96C70.0219 42 68.7019 40.6533 67.7419 38.92C66.8085 37.1867 66.3419 35.1867 66.3419 32.92C66.3419 30.6267 66.8085 28.6133 67.7419 26.88C68.6752 25.1467 69.9819 23.8133 71.6619 22.88C73.3419 21.9467 75.2752 21.48 77.4619 21.48C79.5685 21.48 81.4485 21.9333 83.1019 22.84C84.7819 23.7467 86.0752 25.04 86.9819 26.72C87.9152 28.3733 88.3819 30.28 88.3819 32.44ZM82.5819 30.84C82.5552 29.4 82.0352 28.2533 81.0219 27.4C80.0085 26.52 78.7685 26.08 77.3019 26.08C75.9152 26.08 74.7419 26.5067 73.7819 27.36C72.8485 28.1867 72.2752 29.3467 72.0619 30.84H82.5819ZM96.8694 25.28C97.5894 24.1067 98.5227 23.1867 99.6694 22.52C100.843 21.8533 102.176 21.52 103.669 21.52V27.4H102.189C100.429 27.4 99.096 27.8133 98.1894 28.64C97.3094 29.4667 96.8694 30.9067 96.8694 32.96V44H91.2694V21.84H96.8694V25.28ZM126.841 32.44C126.841 33.24 126.788 33.96 126.681 34.6H110.481C110.615 36.2 111.175 37.4533 112.161 38.36C113.148 39.2667 114.361 39.72 115.801 39.72C117.881 39.72 119.361 38.8267 120.241 37.04H126.281C125.641 39.1733 124.415 40.9333 122.601 42.32C120.788 43.68 118.561 44.36 115.921 44.36C113.788 44.36 111.868 43.8933 110.161 42.96C108.481 42 107.161 40.6533 106.201 38.92C105.268 37.1867 104.801 35.1867 104.801 32.92C104.801 30.6267 105.268 28.6133 106.201 26.88C107.135 25.1467 108.441 23.8133 110.121 22.88C111.801 21.9467 113.735 21.48 115.921 21.48C118.028 21.48 119.908 21.9333 121.561 22.84C123.241 23.7467 124.535 25.04 125.441 26.72C126.375 28.3733 126.841 30.28 126.841 32.44ZM121.041 30.84C121.015 29.4 120.495 28.2533 119.481 27.4C118.468 26.52 117.228 26.08 115.761 26.08C114.375 26.08 113.201 26.5067 112.241 27.36C111.308 28.1867 110.735 29.3467 110.521 30.84H121.041ZM136.7 30C136.7 27.2533 137.313 24.8 138.54 22.64C139.793 20.4533 141.487 18.76 143.62 17.56C145.78 16.3333 148.193 15.72 150.86 15.72C153.98 15.72 156.713 16.52 159.06 18.12C161.407 19.72 163.047 21.9333 163.98 24.76H157.54C156.9 23.4267 155.993 22.4267 154.82 21.76C153.673 21.0933 152.34 20.76 150.82 20.76C149.193 20.76 147.74 21.1467 146.46 21.92C145.207 22.6667 144.22 23.7333 143.5 25.12C142.807 26.5067 142.46 28.1333 142.46 30C142.46 31.84 142.807 33.4667 143.5 34.88C144.22 36.2667 145.207 37.3467 146.46 38.12C147.74 38.8667 149.193 39.24 150.82 39.24C152.34 39.24 153.673 38.9067 154.82 38.24C155.993 37.5467 156.9 36.5333 157.54 35.2H163.98C163.047 38.0533 161.407 40.28 159.06 41.88C156.74 43.4533 154.007 44.24 150.86 44.24C148.193 44.24 145.78 43.64 143.62 42.44C141.487 41.2133 139.793 39.52 138.54 37.36C137.313 35.2 136.7 32.7467 136.7 30ZM177.403 44.36C175.27 44.36 173.35 43.8933 171.643 42.96C169.936 42 168.59 40.6533 167.603 38.92C166.643 37.1867 166.163 35.1867 166.163 32.92C166.163 30.6533 166.656 28.6533 167.643 26.92C168.656 25.1867 170.03 23.8533 171.763 22.92C173.496 21.96 175.43 21.48 177.563 21.48C179.696 21.48 181.63 21.96 183.363 22.92C185.096 23.8533 186.456 25.1867 187.443 26.92C188.456 28.6533 188.963 30.6533 188.963 32.92C188.963 35.1867 188.443 37.1867 187.403 38.92C186.39 40.6533 185.003 42 183.243 42.96C181.51 43.8933 179.563 44.36 177.403 44.36ZM177.403 39.48C178.416 39.48 179.363 39.24 180.243 38.76C181.15 38.2533 181.87 37.5067 182.403 36.52C182.936 35.5333 183.203 34.3333 183.203 32.92C183.203 30.8133 182.643 29.2 181.523 28.08C180.43 26.9333 179.083 26.36 177.483 26.36C175.883 26.36 174.536 26.9333 173.443 28.08C172.376 29.2 171.843 30.8133 171.843 32.92C171.843 35.0267 172.363 36.6533 173.403 37.8C174.47 38.92 175.803 39.48 177.403 39.48ZM204.151 21.52C206.791 21.52 208.924 22.36 210.551 24.04C212.178 25.6933 212.991 28.0133 212.991 31V44H207.391V31.76C207.391 30 206.951 28.6533 206.071 27.72C205.191 26.76 203.991 26.28 202.471 26.28C200.924 26.28 199.698 26.76 198.791 27.72C197.911 28.6533 197.471 30 197.471 31.76V44H191.871V21.84H197.471V24.6C198.218 23.64 199.164 22.8933 200.311 22.36C201.484 21.8 202.764 21.52 204.151 21.52ZM226.356 38.84L231.956 21.84H237.916L229.716 44H222.916L214.756 21.84H220.756L226.356 38.84ZM260.462 32.44C260.462 33.24 260.408 33.96 260.302 34.6H244.102C244.235 36.2 244.795 37.4533 245.782 38.36C246.768 39.2667 247.982 39.72 249.422 39.72C251.502 39.72 252.982 38.8267 253.862 37.04H259.902C259.262 39.1733 258.035 40.9333 256.222 42.32C254.408 43.68 252.182 44.36 249.542 44.36C247.408 44.36 245.488 43.8933 243.782 42.96C242.102 42 240.782 40.6533 239.822 38.92C238.888 37.1867 238.422 35.1867 238.422 32.92C238.422 30.6267 238.888 28.6133 239.822 26.88C240.755 25.1467 242.062 23.8133 243.742 22.88C245.422 21.9467 247.355 21.48 249.542 21.48C251.648 21.48 253.528 21.9333 255.182 22.84C256.862 23.7467 258.155 25.04 259.062 26.72C259.995 28.3733 260.462 30.28 260.462 32.44ZM254.662 30.84C254.635 29.4 254.115 28.2533 253.102 27.4C252.088 26.52 250.848 26.08 249.382 26.08C247.995 26.08 246.822 26.5067 245.862 27.36C244.928 28.1867 244.355 29.3467 244.142 30.84H254.662ZM268.949 25.28C269.669 24.1067 270.602 23.1867 271.749 22.52C272.922 21.8533 274.256 21.52 275.749 21.52V27.4H274.269C272.509 27.4 271.176 27.8133 270.269 28.64C269.389 29.4667 268.949 30.9067 268.949 32.96V44H263.349V21.84H268.949V25.28ZM286.801 44.36C284.988 44.36 283.361 44.04 281.921 43.4C280.481 42.7333 279.334 41.84 278.481 40.72C277.654 39.6 277.201 38.36 277.121 37H282.761C282.868 37.8533 283.281 38.56 284.001 39.12C284.748 39.68 285.668 39.96 286.761 39.96C287.828 39.96 288.654 39.7467 289.241 39.32C289.854 38.8933 290.161 38.3467 290.161 37.68C290.161 36.96 289.788 36.4267 289.041 36.08C288.321 35.7067 287.161 35.3067 285.561 34.88C283.908 34.48 282.548 34.0667 281.481 33.64C280.441 33.2133 279.534 32.56 278.761 31.68C278.014 30.8 277.641 29.6133 277.641 28.12C277.641 26.8933 277.988 25.7733 278.681 24.76C279.401 23.7467 280.414 22.9467 281.721 22.36C283.054 21.7733 284.614 21.48 286.401 21.48C289.041 21.48 291.148 22.1467 292.721 23.48C294.294 24.7867 295.161 26.56 295.321 28.8H289.961C289.881 27.92 289.508 27.2267 288.841 26.72C288.201 26.1867 287.334 25.92 286.241 25.92C285.228 25.92 284.441 26.1067 283.881 26.48C283.348 26.8533 283.081 27.3733 283.081 28.04C283.081 28.7867 283.454 29.36 284.201 29.76C284.948 30.1333 286.108 30.52 287.681 30.92C289.281 31.32 290.601 31.7333 291.641 32.16C292.681 32.5867 293.574 33.2533 294.321 34.16C295.094 35.04 295.494 36.2133 295.521 37.68C295.521 38.96 295.161 40.1067 294.441 41.12C293.748 42.1333 292.734 42.9333 291.401 43.52C290.094 44.08 288.561 44.36 286.801 44.36ZM297.478 32.84C297.478 30.6 297.918 28.6133 298.798 26.88C299.704 25.1467 300.918 23.8133 302.438 22.88C303.984 21.9467 305.704 21.48 307.598 21.48C309.251 21.48 310.691 21.8133 311.918 22.48C313.171 23.1467 314.171 23.9867 314.918 25V21.84H320.558V44H314.918V40.76C314.198 41.8 313.198 42.6667 311.918 43.36C310.664 44.0267 309.211 44.36 307.558 44.36C305.691 44.36 303.984 43.88 302.438 42.92C300.918 41.96 299.704 40.6133 298.798 38.88C297.918 37.12 297.478 35.1067 297.478 32.84ZM314.918 32.92C314.918 31.56 314.651 30.4 314.118 29.44C313.584 28.4533 312.864 27.7067 311.958 27.2C311.051 26.6667 310.078 26.4 309.038 26.4C307.998 26.4 307.038 26.6533 306.158 27.16C305.278 27.6667 304.558 28.4133 303.998 29.4C303.464 30.36 303.198 31.5067 303.198 32.84C303.198 34.1733 303.464 35.3467 303.998 36.36C304.558 37.3467 305.278 38.1067 306.158 38.64C307.064 39.1733 308.024 39.44 309.038 39.44C310.078 39.44 311.051 39.1867 311.958 38.68C312.864 38.1467 313.584 37.4 314.118 36.44C314.651 35.4533 314.918 34.28 314.918 32.92ZM331.347 26.44V37.16C331.347 37.9067 331.521 38.4533 331.867 38.8C332.241 39.12 332.854 39.28 333.707 39.28H336.307V44H332.787C328.067 44 325.707 41.7067 325.707 37.12V26.44H323.067V21.84H325.707V16.36H331.347V21.84H336.307V26.44H331.347ZM341.975 19.2C340.988 19.2 340.162 18.8933 339.495 18.28C338.855 17.64 338.535 16.8533 338.535 15.92C338.535 14.9867 338.855 14.2133 339.495 13.6C340.162 12.96 340.988 12.64 341.975 12.64C342.962 12.64 343.775 12.96 344.415 13.6C345.082 14.2133 345.415 14.9867 345.415 15.92C345.415 16.8533 345.082 17.64 344.415 18.28C343.775 18.8933 342.962 19.2 341.975 19.2ZM344.735 21.84V44H339.135V21.84H344.735ZM358.908 44.36C356.774 44.36 354.854 43.8933 353.148 42.96C351.441 42 350.094 40.6533 349.108 38.92C348.148 37.1867 347.668 35.1867 347.668 32.92C347.668 30.6533 348.161 28.6533 349.148 26.92C350.161 25.1867 351.534 23.8533 353.268 22.92C355.001 21.96 356.934 21.48 359.068 21.48C361.201 21.48 363.134 21.96 364.868 22.92C366.601 23.8533 367.961 25.1867 368.948 26.92C369.961 28.6533 370.468 30.6533 370.468 32.92C370.468 35.1867 369.948 37.1867 368.908 38.92C367.894 40.6533 366.508 42 364.748 42.96C363.014 43.8933 361.068 44.36 358.908 44.36ZM358.908 39.48C359.921 39.48 360.868 39.24 361.748 38.76C362.654 38.2533 363.374 37.5067 363.908 36.52C364.441 35.5333 364.708 34.3333 364.708 32.92C364.708 30.8133 364.148 29.2 363.028 28.08C361.934 26.9333 360.588 26.36 358.988 26.36C357.388 26.36 356.041 26.9333 354.948 28.08C353.881 29.2 353.348 30.8133 353.348 32.92C353.348 35.0267 353.868 36.6533 354.908 37.8C355.974 38.92 357.308 39.48 358.908 39.48ZM385.656 21.52C388.296 21.52 390.429 22.36 392.056 24.04C393.682 25.6933 394.496 28.0133 394.496 31V44H388.896V31.76C388.896 30 388.456 28.6533 387.576 27.72C386.696 26.76 385.496 26.28 383.976 26.28C382.429 26.28 381.202 26.76 380.296 27.72C379.416 28.6533 378.976 30 378.976 31.76V44H373.376V21.84H378.976V24.6C379.722 23.64 380.669 22.8933 381.816 22.36C382.989 21.8 384.269 21.52 385.656 21.52ZM407.101 44.36C405.288 44.36 403.661 44.04 402.221 43.4C400.781 42.7333 399.634 41.84 398.781 40.72C397.954 39.6 397.501 38.36 397.421 37H403.061C403.168 37.8533 403.581 38.56 404.301 39.12C405.048 39.68 405.968 39.96 407.061 39.96C408.128 39.96 408.954 39.7467 409.541 39.32C410.154 38.8933 410.461 38.3467 410.461 37.68C410.461 36.96 410.088 36.4267 409.341 36.08C408.621 35.7067 407.461 35.3067 405.861 34.88C404.208 34.48 402.848 34.0667 401.781 33.64C400.741 33.2133 399.834 32.56 399.061 31.68C398.314 30.8 397.941 29.6133 397.941 28.12C397.941 26.8933 398.288 25.7733 398.981 24.76C399.701 23.7467 400.714 22.9467 402.021 22.36C403.354 21.7733 404.914 21.48 406.701 21.48C409.341 21.48 411.448 22.1467 413.021 23.48C414.594 24.7867 415.461 26.56 415.621 28.8H410.261C410.181 27.92 409.808 27.2267 409.141 26.72C408.501 26.1867 407.634 25.92 406.541 25.92C405.528 25.92 404.741 26.1067 404.181 26.48C403.648 26.8533 403.381 27.3733 403.381 28.04C403.381 28.7867 403.754 29.36 404.501 29.76C405.248 30.1333 406.408 30.52 407.981 30.92C409.581 31.32 410.901 31.7333 411.941 32.16C412.981 32.5867 413.874 33.2533 414.621 34.16C415.394 35.04 415.794 36.2133 415.821 37.68C415.821 38.96 415.461 40.1067 414.741 41.12C414.048 42.1333 413.034 42.9333 411.701 43.52C410.394 44.08 408.861 44.36 407.101 44.36Z" fill="white"/>
<path d="M437.189 44.28C435.242 44.28 433.482 43.9467 431.909 43.28C430.362 42.6133 429.136 41.6533 428.229 40.4C427.322 39.1467 426.856 37.6667 426.829 35.96H432.829C432.909 37.1067 433.309 38.0133 434.029 38.68C434.776 39.3467 435.789 39.68 437.069 39.68C438.376 39.68 439.402 39.3733 440.149 38.76C440.896 38.12 441.269 37.2933 441.269 36.28C441.269 35.4533 441.016 34.7733 440.509 34.24C440.002 33.7067 439.362 33.2933 438.589 33C437.842 32.68 436.802 32.3333 435.469 31.96C433.656 31.4267 432.176 30.9067 431.029 30.4C429.909 29.8667 428.936 29.08 428.109 28.04C427.309 26.9733 426.909 25.56 426.909 23.8C426.909 22.1467 427.322 20.7067 428.149 19.48C428.976 18.2533 430.136 17.32 431.629 16.68C433.122 16.0133 434.829 15.68 436.749 15.68C439.629 15.68 441.962 16.3867 443.749 17.8C445.562 19.1867 446.562 21.1333 446.749 23.64H440.589C440.536 22.68 440.122 21.8933 439.349 21.28C438.602 20.64 437.602 20.32 436.349 20.32C435.256 20.32 434.376 20.6 433.709 21.16C433.069 21.72 432.749 22.5333 432.749 23.6C432.749 24.3467 432.989 24.9733 433.469 25.48C433.976 25.96 434.589 26.36 435.309 26.68C436.056 26.9733 437.096 27.32 438.429 27.72C440.242 28.2533 441.722 28.7867 442.869 29.32C444.016 29.8533 445.002 30.6533 445.829 31.72C446.656 32.7867 447.069 34.1867 447.069 35.92C447.069 37.4133 446.682 38.8 445.909 40.08C445.136 41.36 444.002 42.3867 442.509 43.16C441.016 43.9067 439.242 44.28 437.189 44.28ZM456.324 25.04C457.044 24.0267 458.031 23.1867 459.284 22.52C460.564 21.8267 462.017 21.48 463.644 21.48C465.537 21.48 467.244 21.9467 468.764 22.88C470.311 23.8133 471.524 25.1467 472.404 26.88C473.311 28.5867 473.764 30.5733 473.764 32.84C473.764 35.1067 473.311 37.12 472.404 38.88C471.524 40.6133 470.311 41.96 468.764 42.92C467.244 43.88 465.537 44.36 463.644 44.36C462.017 44.36 460.577 44.0267 459.324 43.36C458.097 42.6933 457.097 41.8533 456.324 40.84V54.56H450.724V21.84H456.324V25.04ZM468.044 32.84C468.044 31.5067 467.764 30.36 467.204 29.4C466.671 28.4133 465.951 27.6667 465.044 27.16C464.164 26.6533 463.204 26.4 462.164 26.4C461.151 26.4 460.191 26.6667 459.284 27.2C458.404 27.7067 457.684 28.4533 457.124 29.44C456.591 30.4267 456.324 31.5867 456.324 32.92C456.324 34.2533 456.591 35.4133 457.124 36.4C457.684 37.3867 458.404 38.1467 459.284 38.68C460.191 39.1867 461.151 39.44 462.164 39.44C463.204 39.44 464.164 39.1733 465.044 38.64C465.951 38.1067 466.671 37.3467 467.204 36.36C467.764 35.3733 468.044 34.2 468.044 32.84ZM475.193 32.84C475.193 30.6 475.633 28.6133 476.513 26.88C477.42 25.1467 478.633 23.8133 480.153 22.88C481.7 21.9467 483.42 21.48 485.313 21.48C486.967 21.48 488.407 21.8133 489.633 22.48C490.887 23.1467 491.887 23.9867 492.633 25V21.84H498.273V44H492.633V40.76C491.913 41.8 490.913 42.6667 489.633 43.36C488.38 44.0267 486.927 44.36 485.273 44.36C483.407 44.36 481.7 43.88 480.153 42.92C478.633 41.96 477.42 40.6133 476.513 38.88C475.633 37.12 475.193 35.1067 475.193 32.84ZM492.633 32.92C492.633 31.56 492.367 30.4 491.833 29.44C491.3 28.4533 490.58 27.7067 489.673 27.2C488.767 26.6667 487.793 26.4 486.753 26.4C485.713 26.4 484.753 26.6533 483.873 27.16C482.993 27.6667 482.273 28.4133 481.713 29.4C481.18 30.36 480.913 31.5067 480.913 32.84C480.913 34.1733 481.18 35.3467 481.713 36.36C482.273 37.3467 482.993 38.1067 483.873 38.64C484.78 39.1733 485.74 39.44 486.753 39.44C487.793 39.44 488.767 39.1867 489.673 38.68C490.58 38.1467 491.3 37.4 491.833 36.44C492.367 35.4533 492.633 34.28 492.633 32.92ZM508.143 25.28C508.863 24.1067 509.796 23.1867 510.943 22.52C512.116 21.8533 513.449 21.52 514.943 21.52V27.4H513.463C511.703 27.4 510.369 27.8133 509.463 28.64C508.583 29.4667 508.143 30.9067 508.143 32.96V44H502.543V21.84H508.143V25.28ZM530.635 44L523.115 34.56V44H517.515V14.4H523.115V31.24L530.555 21.84H537.835L528.075 32.96L537.915 44H530.635Z" fill="#F95979"/>
<path d="M15.904 86.744H7.008L5.536 91H0.832L8.864 68.632H14.08L22.112 91H17.376L15.904 86.744ZM14.688 83.16L11.456 73.816L8.224 83.16H14.688ZM34.9383 73.016C37.0503 73.016 38.7569 73.688 40.0583 75.032C41.3596 76.3547 42.0103 78.2107 42.0103 80.6V91H37.5303V81.208C37.5303 79.8 37.1783 78.7227 36.4743 77.976C35.7703 77.208 34.8103 76.824 33.5943 76.824C32.3569 76.824 31.3756 77.208 30.6503 77.976C29.9463 78.7227 29.5943 79.8 29.5943 81.208V91H25.1143V73.272H29.5943V75.48C30.1916 74.712 30.9489 74.1147 31.8663 73.688C32.8049 73.24 33.8289 73.016 34.9383 73.016ZM45.1185 82.072C45.1185 80.28 45.4705 78.6907 46.1745 77.304C46.8998 75.9173 47.8812 74.8507 49.1185 74.104C50.3558 73.3573 51.7318 72.984 53.2465 72.984C54.3985 72.984 55.4972 73.24 56.5425 73.752C57.5878 74.2427 58.4198 74.904 59.0385 75.736V67.32H63.5825V91H59.0385V88.376C58.4838 89.2507 57.7052 89.9547 56.7025 90.488C55.6998 91.0213 54.5372 91.288 53.2145 91.288C51.7212 91.288 50.3558 90.904 49.1185 90.136C47.8812 89.368 46.8998 88.2907 46.1745 86.904C45.4705 85.496 45.1185 83.8853 45.1185 82.072ZM59.0705 82.136C59.0705 81.048 58.8572 80.12 58.4305 79.352C58.0038 78.5627 57.4278 77.9653 56.7025 77.56C55.9772 77.1333 55.1985 76.92 54.3665 76.92C53.5345 76.92 52.7665 77.1227 52.0625 77.528C51.3585 77.9333 50.7825 78.5307 50.3345 79.32C49.9078 80.088 49.6945 81.0053 49.6945 82.072C49.6945 83.1387 49.9078 84.0773 50.3345 84.888C50.7825 85.6773 51.3585 86.2853 52.0625 86.712C52.7878 87.1387 53.5558 87.352 54.3665 87.352C55.1985 87.352 55.9772 87.1493 56.7025 86.744C57.4278 86.3173 58.0038 85.72 58.4305 84.952C58.8572 84.1627 59.0705 83.224 59.0705 82.136ZM88.255 79.544C89.5137 79.7787 90.5483 80.408 91.359 81.432C92.1697 82.456 92.575 83.6293 92.575 84.952C92.575 86.1467 92.2763 87.2027 91.679 88.12C91.103 89.016 90.2603 89.72 89.151 90.232C88.0417 90.744 86.7297 91 85.215 91H75.583V68.664H84.799C86.3137 68.664 87.615 68.9093 88.703 69.4C89.8123 69.8907 90.6443 70.5733 91.199 71.448C91.775 72.3227 92.063 73.3147 92.063 74.424C92.063 75.7253 91.711 76.8133 91.007 77.688C90.3243 78.5627 89.407 79.1813 88.255 79.544ZM80.063 77.88H84.159C85.2257 77.88 86.047 77.6453 86.623 77.176C87.199 76.6853 87.487 75.992 87.487 75.096C87.487 74.2 87.199 73.5067 86.623 73.016C86.047 72.5253 85.2257 72.28 84.159 72.28H80.063V77.88ZM84.575 87.352C85.663 87.352 86.5057 87.096 87.103 86.584C87.7217 86.072 88.031 85.3467 88.031 84.408C88.031 83.448 87.711 82.7013 87.071 82.168C86.431 81.6133 85.567 81.336 84.479 81.336H80.063V87.352H84.575ZM104.018 91.288C102.311 91.288 100.775 90.9147 99.4095 90.168C98.0442 89.4 96.9668 88.3227 96.1775 86.936C95.4095 85.5493 95.0255 83.9493 95.0255 82.136C95.0255 80.3227 95.4202 78.7227 96.2095 77.336C97.0202 75.9493 98.1188 74.8827 99.5055 74.136C100.892 73.368 102.439 72.984 104.146 72.984C105.852 72.984 107.399 73.368 108.786 74.136C110.172 74.8827 111.26 75.9493 112.05 77.336C112.86 78.7227 113.266 80.3227 113.266 82.136C113.266 83.9493 112.85 85.5493 112.017 86.936C111.207 88.3227 110.098 89.4 108.69 90.168C107.303 90.9147 105.746 91.288 104.018 91.288ZM104.018 87.384C104.828 87.384 105.586 87.192 106.29 86.808C107.015 86.4027 107.591 85.8053 108.018 85.016C108.444 84.2267 108.658 83.2667 108.658 82.136C108.658 80.4507 108.21 79.16 107.314 78.264C106.439 77.3467 105.362 76.888 104.082 76.888C102.802 76.888 101.724 77.3467 100.85 78.264C99.9962 79.16 99.5695 80.4507 99.5695 82.136C99.5695 83.8213 99.9855 85.1227 100.818 86.04C101.671 86.936 102.738 87.384 104.018 87.384ZM133.288 73.272V91H128.776V88.76C128.2 89.528 127.442 90.136 126.504 90.584C125.586 91.0107 124.584 91.224 123.496 91.224C122.109 91.224 120.882 90.936 119.816 90.36C118.749 89.7627 117.906 88.8987 117.288 87.768C116.69 86.616 116.392 85.2507 116.392 83.672V73.272H120.872V83.032C120.872 84.44 121.224 85.528 121.928 86.296C122.632 87.0427 123.592 87.416 124.808 87.416C126.045 87.416 127.016 87.0427 127.72 86.296C128.424 85.528 128.776 84.44 128.776 83.032V73.272H133.288ZM147.532 73.016C149.644 73.016 151.351 73.688 152.652 75.032C153.953 76.3547 154.604 78.2107 154.604 80.6V91H150.124V81.208C150.124 79.8 149.772 78.7227 149.068 77.976C148.364 77.208 147.404 76.824 146.188 76.824C144.951 76.824 143.969 77.208 143.244 77.976C142.54 78.7227 142.188 79.8 142.188 81.208V91H137.708V73.272H142.188V75.48C142.785 74.712 143.543 74.1147 144.46 73.688C145.399 73.24 146.423 73.016 147.532 73.016ZM157.712 82.072C157.712 80.28 158.064 78.6907 158.768 77.304C159.494 75.9173 160.475 74.8507 161.712 74.104C162.95 73.3573 164.326 72.984 165.84 72.984C166.992 72.984 168.091 73.24 169.136 73.752C170.182 74.2427 171.014 74.904 171.632 75.736V67.32H176.176V91H171.632V88.376C171.078 89.2507 170.299 89.9547 169.296 90.488C168.294 91.0213 167.131 91.288 165.808 91.288C164.315 91.288 162.95 90.904 161.712 90.136C160.475 89.368 159.494 88.2907 158.768 86.904C158.064 85.496 157.712 83.8853 157.712 82.072ZM171.664 82.136C171.664 81.048 171.451 80.12 171.024 79.352C170.598 78.5627 170.022 77.9653 169.296 77.56C168.571 77.1333 167.792 76.92 166.96 76.92C166.128 76.92 165.36 77.1227 164.656 77.528C163.952 77.9333 163.376 78.5307 162.928 79.32C162.502 80.088 162.288 81.0053 162.288 82.072C162.288 83.1387 162.502 84.0773 162.928 84.888C163.376 85.6773 163.952 86.2853 164.656 86.712C165.382 87.1387 166.15 87.352 166.96 87.352C167.792 87.352 168.571 87.1493 169.296 86.744C170.022 86.3173 170.598 85.72 171.024 84.952C171.451 84.1627 171.664 83.224 171.664 82.136ZM179.4 82.072C179.4 80.28 179.752 78.6907 180.456 77.304C181.181 75.9173 182.152 74.8507 183.368 74.104C184.605 73.3573 185.981 72.984 187.496 72.984C188.818 72.984 189.97 73.2507 190.952 73.784C191.954 74.3173 192.754 74.9893 193.352 75.8V73.272H197.864V91H193.352V88.408C192.776 89.24 191.976 89.9333 190.952 90.488C189.949 91.0213 188.786 91.288 187.464 91.288C185.97 91.288 184.605 90.904 183.368 90.136C182.152 89.368 181.181 88.2907 180.456 86.904C179.752 85.496 179.4 83.8853 179.4 82.072ZM193.352 82.136C193.352 81.048 193.138 80.12 192.712 79.352C192.285 78.5627 191.709 77.9653 190.984 77.56C190.258 77.1333 189.48 76.92 188.648 76.92C187.816 76.92 187.048 77.1227 186.344 77.528C185.64 77.9333 185.064 78.5307 184.616 79.32C184.189 80.088 183.976 81.0053 183.976 82.072C183.976 83.1387 184.189 84.0773 184.616 84.888C185.064 85.6773 185.64 86.2853 186.344 86.712C187.069 87.1387 187.837 87.352 188.648 87.352C189.48 87.352 190.258 87.1493 190.984 86.744C191.709 86.3173 192.285 85.72 192.712 84.952C193.138 84.1627 193.352 83.224 193.352 82.136ZM206.719 76.024C207.295 75.0853 208.042 74.3493 208.959 73.816C209.898 73.2827 210.965 73.016 212.159 73.016V77.72H210.975C209.567 77.72 208.501 78.0507 207.775 78.712C207.071 79.3733 206.719 80.5253 206.719 82.168V91H202.239V73.272H206.719V76.024ZM217.449 71.16C216.659 71.16 215.998 70.9147 215.465 70.424C214.953 69.912 214.697 69.2827 214.697 68.536C214.697 67.7893 214.953 67.1707 215.465 66.68C215.998 66.168 216.659 65.912 217.449 65.912C218.238 65.912 218.889 66.168 219.401 66.68C219.934 67.1707 220.201 67.7893 220.201 68.536C220.201 69.2827 219.934 69.912 219.401 70.424C218.889 70.9147 218.238 71.16 217.449 71.16ZM219.657 73.272V91H215.177V73.272H219.657ZM240.563 81.752C240.563 82.392 240.52 82.968 240.435 83.48H227.475C227.582 84.76 228.03 85.7627 228.819 86.488C229.608 87.2133 230.579 87.576 231.731 87.576C233.395 87.576 234.579 86.8613 235.283 85.432H240.115C239.603 87.1387 238.622 88.5467 237.171 89.656C235.72 90.744 233.939 91.288 231.827 91.288C230.12 91.288 228.584 90.9147 227.219 90.168C225.875 89.4 224.819 88.3227 224.051 86.936C223.304 85.5493 222.931 83.9493 222.931 82.136C222.931 80.3013 223.304 78.6907 224.051 77.304C224.798 75.9173 225.843 74.8507 227.187 74.104C228.531 73.3573 230.078 72.984 231.827 72.984C233.512 72.984 235.016 73.3467 236.339 74.072C237.683 74.7973 238.718 75.832 239.443 77.176C240.19 78.4987 240.563 80.024 240.563 81.752ZM235.923 80.472C235.902 79.32 235.486 78.4027 234.675 77.72C233.864 77.016 232.872 76.664 231.699 76.664C230.59 76.664 229.651 77.0053 228.883 77.688C228.136 78.3493 227.678 79.2773 227.507 80.472H235.923ZM250.617 91.288C249.166 91.288 247.865 91.032 246.713 90.52C245.561 89.9867 244.644 89.272 243.961 88.376C243.3 87.48 242.937 86.488 242.873 85.4H247.385C247.47 86.0827 247.801 86.648 248.377 87.096C248.974 87.544 249.71 87.768 250.585 87.768C251.438 87.768 252.1 87.5973 252.569 87.256C253.06 86.9147 253.305 86.4773 253.305 85.944C253.305 85.368 253.006 84.9413 252.409 84.664C251.833 84.3653 250.905 84.0453 249.625 83.704C248.302 83.384 247.214 83.0533 246.361 82.712C245.529 82.3707 244.804 81.848 244.185 81.144C243.588 80.44 243.289 79.4907 243.289 78.296C243.289 77.3147 243.566 76.4187 244.121 75.608C244.697 74.7973 245.508 74.1573 246.553 73.688C247.62 73.2187 248.868 72.984 250.297 72.984C252.409 72.984 254.094 73.5173 255.353 74.584C256.612 75.6293 257.305 77.048 257.433 78.84H253.145C253.081 78.136 252.782 77.5813 252.249 77.176C251.737 76.7493 251.044 76.536 250.169 76.536C249.358 76.536 248.729 76.6853 248.281 76.984C247.854 77.2827 247.641 77.6987 247.641 78.232C247.641 78.8293 247.94 79.288 248.537 79.608C249.134 79.9067 250.062 80.216 251.321 80.536C252.601 80.856 253.657 81.1867 254.489 81.528C255.321 81.8693 256.036 82.4027 256.633 83.128C257.252 83.832 257.572 84.7707 257.593 85.944C257.593 86.968 257.305 87.8853 256.729 88.696C256.174 89.5067 255.364 90.1467 254.297 90.616C253.252 91.064 252.025 91.288 250.617 91.288ZM281.568 79.544C282.826 79.7787 283.861 80.408 284.672 81.432C285.482 82.456 285.888 83.6293 285.888 84.952C285.888 86.1467 285.589 87.2027 284.992 88.12C284.416 89.016 283.573 89.72 282.464 90.232C281.354 90.744 280.042 91 278.528 91H268.896V68.664H278.112C279.626 68.664 280.928 68.9093 282.016 69.4C283.125 69.8907 283.957 70.5733 284.512 71.448C285.088 72.3227 285.376 73.3147 285.376 74.424C285.376 75.7253 285.024 76.8133 284.319 77.688C283.637 78.5627 282.72 79.1813 281.568 79.544ZM273.376 77.88H277.472C278.538 77.88 279.36 77.6453 279.936 77.176C280.512 76.6853 280.8 75.992 280.8 75.096C280.8 74.2 280.512 73.5067 279.936 73.016C279.36 72.5253 278.538 72.28 277.472 72.28H273.376V77.88ZM277.888 87.352C278.976 87.352 279.818 87.096 280.416 86.584C281.034 86.072 281.344 85.3467 281.344 84.408C281.344 83.448 281.024 82.7013 280.384 82.168C279.744 81.6133 278.88 81.336 277.792 81.336H273.376V87.352H277.888ZM293.938 67.32V91H289.458V67.32H293.938ZM315.1 73.272V91H310.588V88.76C310.012 89.528 309.255 90.136 308.316 90.584C307.399 91.0107 306.396 91.224 305.308 91.224C303.922 91.224 302.695 90.936 301.628 90.36C300.562 89.7627 299.719 88.8987 299.1 87.768C298.503 86.616 298.204 85.2507 298.204 83.672V73.272H302.684V83.032C302.684 84.44 303.036 85.528 303.74 86.296C304.444 87.0427 305.404 87.416 306.62 87.416C307.858 87.416 308.828 87.0427 309.532 86.296C310.236 85.528 310.588 84.44 310.588 83.032V73.272H315.1ZM324.001 76.024C324.577 75.0853 325.323 74.3493 326.241 73.816C327.179 73.2827 328.246 73.016 329.441 73.016V77.72H328.257C326.849 77.72 325.782 78.0507 325.057 78.712C324.353 79.3733 324.001 80.5253 324.001 82.168V91H319.521V73.272H324.001V76.024Z" fill="white"/>
</svg>
