<svg width="563" height="43" viewBox="0 0 563 43" fill="none" xmlns="http://www.w3.org/2000/svg">
<path d="M17.5 4.08V8.6H5.86V15.76H14.78V20.2H5.86V32H0.26V4.08H17.5ZM27.0709 13.28C27.7909 12.1067 28.7243 11.1867 29.8709 10.52C31.0443 9.85333 32.3776 9.52 33.8709 9.52V15.4H32.3909C30.6309 15.4 29.2976 15.8133 28.3909 16.64C27.5109 17.4667 27.0709 18.9067 27.0709 20.96V32H21.4709V9.84H27.0709V13.28ZM58.2428 20.44C58.2428 21.24 58.1895 21.96 58.0828 22.6H41.8828C42.0161 24.2 42.5761 25.4533 43.5628 26.36C44.5495 27.2667 45.7628 27.72 47.2028 27.72C49.2828 27.72 50.7628 26.8267 51.6428 25.04H57.6828C57.0428 27.1733 55.8161 28.9333 54.0028 30.32C52.1895 31.68 49.9628 32.36 47.3228 32.36C45.1895 32.36 43.2695 31.8933 41.5628 30.96C39.8828 30 38.5628 28.6533 37.6028 26.92C36.6695 25.1867 36.2028 23.1867 36.2028 20.92C36.2028 18.6267 36.6695 16.6133 37.6028 14.88C38.5361 13.1467 39.8428 11.8133 41.5228 10.88C43.2028 9.94667 45.1361 9.48 47.3228 9.48C49.4295 9.48 51.3095 9.93333 52.9628 10.84C54.6428 11.7467 55.9361 13.04 56.8428 14.72C57.7761 16.3733 58.2428 18.28 58.2428 20.44ZM52.4428 18.84C52.4161 17.4 51.8961 16.2533 50.8828 15.4C49.8695 14.52 48.6295 14.08 47.1628 14.08C45.7761 14.08 44.6028 14.5067 43.6428 15.36C42.7095 16.1867 42.1361 17.3467 41.9228 18.84H52.4428ZM60.8903 20.88C60.8903 18.6667 61.3436 16.7067 62.2503 15C63.1836 13.2667 64.437 11.92 66.0103 10.96C67.5836 10 69.317 9.52 71.2103 9.52C72.7836 9.52 74.1703 9.82667 75.3703 10.44C76.597 11.0267 77.5836 11.7867 78.3303 12.72V9.84H83.9703V42.56H78.3303V28.96C77.5836 29.92 76.5836 30.72 75.3303 31.36C74.077 32 72.6636 32.32 71.0903 32.32C69.2236 32.32 67.5036 31.84 65.9303 30.88C64.3836 29.8933 63.157 28.5333 62.2503 26.8C61.3436 25.0667 60.8903 23.0933 60.8903 20.88ZM78.3303 20.92C78.3303 19.56 78.0503 18.3867 77.4903 17.4C76.9303 16.4133 76.197 15.6667 75.2903 15.16C74.4103 14.6533 73.4636 14.4 72.4503 14.4C71.4636 14.4 70.517 14.6533 69.6103 15.16C68.7303 15.6667 68.0103 16.4133 67.4503 17.4C66.8903 18.36 66.6103 19.52 66.6103 20.88C66.6103 22.24 66.8903 23.4267 67.4503 24.44C68.0103 25.4267 68.7303 26.1733 69.6103 26.68C70.517 27.1867 71.4636 27.44 72.4503 27.44C73.4636 27.44 74.4103 27.1867 75.2903 26.68C76.197 26.1733 76.9303 25.4267 77.4903 24.44C78.0503 23.4533 78.3303 22.28 78.3303 20.92ZM110.36 9.84V32H104.72V29.2C104 30.16 103.053 30.92 101.88 31.48C100.733 32.0133 99.4797 32.28 98.1197 32.28C96.3864 32.28 94.853 31.92 93.5197 31.2C92.1864 30.4533 91.133 29.3733 90.3597 27.96C89.613 26.52 89.2397 24.8133 89.2397 22.84V9.84H94.8397V22.04C94.8397 23.8 95.2797 25.16 96.1597 26.12C97.0397 27.0533 98.2397 27.52 99.7597 27.52C101.306 27.52 102.52 27.0533 103.4 26.12C104.28 25.16 104.72 23.8 104.72 22.04V9.84H110.36ZM136.485 20.44C136.485 21.24 136.432 21.96 136.325 22.6H120.125C120.258 24.2 120.818 25.4533 121.805 26.36C122.792 27.2667 124.005 27.72 125.445 27.72C127.525 27.72 129.005 26.8267 129.885 25.04H135.925C135.285 27.1733 134.058 28.9333 132.245 30.32C130.432 31.68 128.205 32.36 125.565 32.36C123.432 32.36 121.512 31.8933 119.805 30.96C118.125 30 116.805 28.6533 115.845 26.92C114.912 25.1867 114.445 23.1867 114.445 20.92C114.445 18.6267 114.912 16.6133 115.845 14.88C116.778 13.1467 118.085 11.8133 119.765 10.88C121.445 9.94667 123.378 9.48 125.565 9.48C127.672 9.48 129.552 9.93333 131.205 10.84C132.885 11.7467 134.178 13.04 135.085 14.72C136.018 16.3733 136.485 18.28 136.485 20.44ZM130.685 18.84C130.658 17.4 130.138 16.2533 129.125 15.4C128.112 14.52 126.872 14.08 125.405 14.08C124.018 14.08 122.845 14.5067 121.885 15.36C120.952 16.1867 120.378 17.3467 120.165 18.84H130.685ZM152.853 9.52C155.493 9.52 157.626 10.36 159.253 12.04C160.879 13.6933 161.693 16.0133 161.693 19V32H156.093V19.76C156.093 18 155.653 16.6533 154.773 15.72C153.893 14.76 152.693 14.28 151.173 14.28C149.626 14.28 148.399 14.76 147.493 15.72C146.613 16.6533 146.173 18 146.173 19.76V32H140.573V9.84H146.173V12.6C146.919 11.64 147.866 10.8933 149.013 10.36C150.186 9.8 151.466 9.52 152.853 9.52ZM173.538 14.44V25.16C173.538 25.9067 173.711 26.4533 174.058 26.8C174.431 27.12 175.044 27.28 175.898 27.28H178.498V32H174.978C170.258 32 167.898 29.7067 167.898 25.12V14.44H165.258V9.84H167.898V4.36H173.538V9.84H178.498V14.44H173.538ZM188.126 2.4V32H182.526V2.4H188.126ZM214.858 9.84L201.138 42.48H195.178L199.978 31.44L191.098 9.84H197.378L203.098 25.32L208.898 9.84H214.858ZM244.528 26.68H233.408L231.568 32H225.688L235.728 4.04H242.248L252.288 32H246.368L244.528 26.68ZM243.008 22.2L238.968 10.52L234.928 22.2H243.008ZM264.521 32.36C262.708 32.36 261.081 32.04 259.641 31.4C258.201 30.7333 257.055 29.84 256.201 28.72C255.375 27.6 254.921 26.36 254.841 25H260.481C260.588 25.8533 261.001 26.56 261.721 27.12C262.468 27.68 263.388 27.96 264.481 27.96C265.548 27.96 266.375 27.7467 266.961 27.32C267.575 26.8933 267.881 26.3467 267.881 25.68C267.881 24.96 267.508 24.4267 266.761 24.08C266.041 23.7067 264.881 23.3067 263.281 22.88C261.628 22.48 260.268 22.0667 259.201 21.64C258.161 21.2133 257.255 20.56 256.481 19.68C255.735 18.8 255.361 17.6133 255.361 16.12C255.361 14.8933 255.708 13.7733 256.401 12.76C257.121 11.7467 258.135 10.9467 259.441 10.36C260.775 9.77333 262.335 9.48 264.121 9.48C266.761 9.48 268.868 10.1467 270.441 11.48C272.015 12.7867 272.881 14.56 273.041 16.8H267.681C267.601 15.92 267.228 15.2267 266.561 14.72C265.921 14.1867 265.055 13.92 263.961 13.92C262.948 13.92 262.161 14.1067 261.601 14.48C261.068 14.8533 260.801 15.3733 260.801 16.04C260.801 16.7867 261.175 17.36 261.921 17.76C262.668 18.1333 263.828 18.52 265.401 18.92C267.001 19.32 268.321 19.7333 269.361 20.16C270.401 20.5867 271.295 21.2533 272.041 22.16C272.815 23.04 273.215 24.2133 273.241 25.68C273.241 26.96 272.881 28.1067 272.161 29.12C271.468 30.1333 270.455 30.9333 269.121 31.52C267.815 32.08 266.281 32.36 264.521 32.36ZM290.958 32L283.438 22.56V32H277.838V2.4H283.438V19.24L290.878 9.84H298.158L288.398 20.96L298.238 32H290.958ZM321.798 20.44C321.798 21.24 321.744 21.96 321.638 22.6H305.438C305.571 24.2 306.131 25.4533 307.118 26.36C308.104 27.2667 309.318 27.72 310.758 27.72C312.838 27.72 314.318 26.8267 315.198 25.04H321.238C320.598 27.1733 319.371 28.9333 317.558 30.32C315.744 31.68 313.518 32.36 310.878 32.36C308.744 32.36 306.824 31.8933 305.118 30.96C303.438 30 302.118 28.6533 301.158 26.92C300.224 25.1867 299.757 23.1867 299.757 20.92C299.757 18.6267 300.224 16.6133 301.158 14.88C302.091 13.1467 303.398 11.8133 305.078 10.88C306.758 9.94667 308.691 9.48 310.878 9.48C312.984 9.48 314.864 9.93333 316.518 10.84C318.198 11.7467 319.491 13.04 320.398 14.72C321.331 16.3733 321.798 18.28 321.798 20.44ZM315.998 18.84C315.971 17.4 315.451 16.2533 314.438 15.4C313.424 14.52 312.184 14.08 310.718 14.08C309.331 14.08 308.158 14.5067 307.198 15.36C306.264 16.1867 305.691 17.3467 305.478 18.84H315.998ZM324.445 20.84C324.445 18.6 324.885 16.6133 325.765 14.88C326.672 13.1467 327.898 11.8133 329.445 10.88C330.992 9.94667 332.712 9.48 334.605 9.48C336.045 9.48 337.418 9.8 338.725 10.44C340.032 11.0533 341.072 11.88 341.845 12.92V2.4H347.525V32H341.845V28.72C341.152 29.8133 340.178 30.6933 338.925 31.36C337.672 32.0267 336.218 32.36 334.565 32.36C332.698 32.36 330.992 31.88 329.445 30.92C327.898 29.96 326.672 28.6133 325.765 26.88C324.885 25.12 324.445 23.1067 324.445 20.84ZM341.885 20.92C341.885 19.56 341.618 18.4 341.085 17.44C340.552 16.4533 339.832 15.7067 338.925 15.2C338.018 14.6667 337.045 14.4 336.005 14.4C334.965 14.4 334.005 14.6533 333.125 15.16C332.245 15.6667 331.525 16.4133 330.965 17.4C330.432 18.36 330.165 19.5067 330.165 20.84C330.165 22.1733 330.432 23.3467 330.965 24.36C331.525 25.3467 332.245 26.1067 333.125 26.64C334.032 27.1733 334.992 27.44 336.005 27.44C337.045 27.44 338.018 27.1867 338.925 26.68C339.832 26.1467 340.552 25.4 341.085 24.44C341.618 23.4533 341.885 22.28 341.885 20.92ZM383.326 36.92L379.086 31.84C377.912 32.1333 376.712 32.28 375.486 32.28C372.872 32.28 370.472 31.6667 368.286 30.44C366.099 29.2133 364.366 27.52 363.086 25.36C361.806 23.1733 361.166 20.7067 361.166 17.96C361.166 15.24 361.806 12.8 363.086 10.64C364.366 8.45333 366.099 6.74666 368.286 5.52C370.472 4.29333 372.872 3.68 375.486 3.68C378.126 3.68 380.526 4.29333 382.686 5.52C384.872 6.74666 386.592 8.45333 387.846 10.64C389.126 12.8 389.766 15.24 389.766 17.96C389.766 20.44 389.232 22.7067 388.166 24.76C387.126 26.7867 385.699 28.44 383.886 29.72L390.286 36.92H383.326ZM366.926 17.96C366.926 19.8267 367.286 21.4667 368.006 22.88C368.726 24.2933 369.726 25.3867 371.006 26.16C372.312 26.9067 373.806 27.28 375.486 27.28C377.166 27.28 378.646 26.9067 379.926 26.16C381.206 25.3867 382.206 24.2933 382.926 22.88C383.646 21.4667 384.006 19.8267 384.006 17.96C384.006 16.0933 383.646 14.4667 382.926 13.08C382.206 11.6667 381.206 10.5867 379.926 9.84C378.646 9.09333 377.166 8.72 375.486 8.72C373.806 8.72 372.312 9.09333 371.006 9.84C369.726 10.5867 368.726 11.6667 368.006 13.08C367.286 14.4667 366.926 16.0933 366.926 17.96ZM414.93 9.84V32H409.29V29.2C408.57 30.16 407.623 30.92 406.45 31.48C405.303 32.0133 404.05 32.28 402.69 32.28C400.957 32.28 399.423 31.92 398.09 31.2C396.757 30.4533 395.703 29.3733 394.93 27.96C394.183 26.52 393.81 24.8133 393.81 22.84V9.84H399.41V22.04C399.41 23.8 399.85 25.16 400.73 26.12C401.61 27.0533 402.81 27.52 404.33 27.52C405.877 27.52 407.09 27.0533 407.97 26.12C408.85 25.16 409.29 23.8 409.29 22.04V9.84H414.93ZM441.055 20.44C441.055 21.24 441.002 21.96 440.895 22.6H424.695C424.829 24.2 425.389 25.4533 426.375 26.36C427.362 27.2667 428.575 27.72 430.015 27.72C432.095 27.72 433.575 26.8267 434.455 25.04H440.495C439.855 27.1733 438.629 28.9333 436.815 30.32C435.002 31.68 432.775 32.36 430.135 32.36C428.002 32.36 426.082 31.8933 424.375 30.96C422.695 30 421.375 28.6533 420.415 26.92C419.482 25.1867 419.015 23.1867 419.015 20.92C419.015 18.6267 419.482 16.6133 420.415 14.88C421.349 13.1467 422.655 11.8133 424.335 10.88C426.015 9.94667 427.949 9.48 430.135 9.48C432.242 9.48 434.122 9.93333 435.775 10.84C437.455 11.7467 438.749 13.04 439.655 14.72C440.589 16.3733 441.055 18.28 441.055 20.44ZM435.255 18.84C435.229 17.4 434.709 16.2533 433.695 15.4C432.682 14.52 431.442 14.08 429.975 14.08C428.589 14.08 427.415 14.5067 426.455 15.36C425.522 16.1867 424.949 17.3467 424.735 18.84H435.255ZM453.623 32.36C451.809 32.36 450.183 32.04 448.743 31.4C447.303 30.7333 446.156 29.84 445.303 28.72C444.476 27.6 444.023 26.36 443.943 25H449.583C449.689 25.8533 450.103 26.56 450.823 27.12C451.569 27.68 452.489 27.96 453.583 27.96C454.649 27.96 455.476 27.7467 456.063 27.32C456.676 26.8933 456.983 26.3467 456.983 25.68C456.983 24.96 456.609 24.4267 455.863 24.08C455.143 23.7067 453.983 23.3067 452.383 22.88C450.729 22.48 449.369 22.0667 448.303 21.64C447.263 21.2133 446.356 20.56 445.583 19.68C444.836 18.8 444.463 17.6133 444.463 16.12C444.463 14.8933 444.809 13.7733 445.503 12.76C446.223 11.7467 447.236 10.9467 448.543 10.36C449.876 9.77333 451.436 9.48 453.223 9.48C455.863 9.48 457.969 10.1467 459.543 11.48C461.116 12.7867 461.983 14.56 462.143 16.8H456.783C456.703 15.92 456.329 15.2267 455.663 14.72C455.023 14.1867 454.156 13.92 453.063 13.92C452.049 13.92 451.263 14.1067 450.703 14.48C450.169 14.8533 449.903 15.3733 449.903 16.04C449.903 16.7867 450.276 17.36 451.023 17.76C451.769 18.1333 452.929 18.52 454.503 18.92C456.103 19.32 457.423 19.7333 458.463 20.16C459.503 20.5867 460.396 21.2533 461.143 22.16C461.916 23.04 462.316 24.2133 462.343 25.68C462.343 26.96 461.983 28.1067 461.263 29.12C460.569 30.1333 459.556 30.9333 458.223 31.52C456.916 32.08 455.383 32.36 453.623 32.36ZM473.46 14.44V25.16C473.46 25.9067 473.633 26.4533 473.98 26.8C474.353 27.12 474.966 27.28 475.82 27.28H478.42V32H474.9C470.18 32 467.82 29.7067 467.82 25.12V14.44H465.18V9.84H467.82V4.36H473.46V9.84H478.42V14.44H473.46ZM485.288 7.2C484.301 7.2 483.474 6.89333 482.808 6.28C482.168 5.64 481.848 4.85333 481.848 3.92C481.848 2.98667 482.168 2.21333 482.808 1.6C483.474 0.959998 484.301 0.639998 485.288 0.639998C486.274 0.639998 487.088 0.959998 487.728 1.6C488.394 2.21333 488.728 2.98667 488.728 3.92C488.728 4.85333 488.394 5.64 487.728 6.28C487.088 6.89333 486.274 7.2 485.288 7.2ZM488.048 9.84V32H482.448V9.84H488.048ZM503.42 32.36C501.287 32.36 499.367 31.8933 497.66 30.96C495.954 30 494.607 28.6533 493.62 26.92C492.66 25.1867 492.18 23.1867 492.18 20.92C492.18 18.6533 492.674 16.6533 493.66 14.92C494.674 13.1867 496.047 11.8533 497.78 10.92C499.514 9.96 501.447 9.48 503.58 9.48C505.714 9.48 507.647 9.96 509.38 10.92C511.114 11.8533 512.474 13.1867 513.46 14.92C514.474 16.6533 514.98 18.6533 514.98 20.92C514.98 23.1867 514.46 25.1867 513.42 26.92C512.407 28.6533 511.02 30 509.26 30.96C507.527 31.8933 505.58 32.36 503.42 32.36ZM503.42 27.48C504.434 27.48 505.38 27.24 506.26 26.76C507.167 26.2533 507.887 25.5067 508.42 24.52C508.954 23.5333 509.22 22.3333 509.22 20.92C509.22 18.8133 508.66 17.2 507.54 16.08C506.447 14.9333 505.1 14.36 503.5 14.36C501.9 14.36 500.554 14.9333 499.46 16.08C498.394 17.2 497.86 18.8133 497.86 20.92C497.86 23.0267 498.38 24.6533 499.42 25.8C500.487 26.92 501.82 27.48 503.42 27.48ZM531.368 9.52C534.008 9.52 536.141 10.36 537.768 12.04C539.395 13.6933 540.208 16.0133 540.208 19V32H534.608V19.76C534.608 18 534.168 16.6533 533.288 15.72C532.408 14.76 531.208 14.28 529.688 14.28C528.141 14.28 526.915 14.76 526.008 15.72C525.128 16.6533 524.688 18 524.688 19.76V32H519.088V9.84H524.688V12.6C525.435 11.64 526.381 10.8933 527.528 10.36C528.701 9.8 529.981 9.52 531.368 9.52ZM554.013 32.36C552.2 32.36 550.573 32.04 549.133 31.4C547.693 30.7333 546.547 29.84 545.693 28.72C544.867 27.6 544.413 26.36 544.333 25H549.973C550.08 25.8533 550.493 26.56 551.213 27.12C551.96 27.68 552.88 27.96 553.973 27.96C555.04 27.96 555.867 27.7467 556.453 27.32C557.067 26.8933 557.373 26.3467 557.373 25.68C557.373 24.96 557 24.4267 556.253 24.08C555.533 23.7067 554.373 23.3067 552.773 22.88C551.12 22.48 549.76 22.0667 548.693 21.64C547.653 21.2133 546.747 20.56 545.973 19.68C545.227 18.8 544.853 17.6133 544.853 16.12C544.853 14.8933 545.2 13.7733 545.893 12.76C546.613 11.7467 547.627 10.9467 548.933 10.36C550.267 9.77333 551.827 9.48 553.613 9.48C556.253 9.48 558.36 10.1467 559.933 11.48C561.507 12.7867 562.373 14.56 562.533 16.8H557.173C557.093 15.92 556.72 15.2267 556.053 14.72C555.413 14.1867 554.547 13.92 553.453 13.92C552.44 13.92 551.653 14.1067 551.093 14.48C550.56 14.8533 550.293 15.3733 550.293 16.04C550.293 16.7867 550.667 17.36 551.413 17.76C552.16 18.1333 553.32 18.52 554.893 18.92C556.493 19.32 557.813 19.7333 558.853 20.16C559.893 20.5867 560.787 21.2533 561.533 22.16C562.307 23.04 562.707 24.2133 562.733 25.68C562.733 26.96 562.373 28.1067 561.653 29.12C560.96 30.1333 559.947 30.9333 558.613 31.52C557.307 32.08 555.773 32.36 554.013 32.36Z" fill="url(#paint0_linear_337_5892)"/>
<defs>
<linearGradient id="paint0_linear_337_5892" x1="-2.5" y1="18" x2="565.5" y2="18" gradientUnits="userSpaceOnUse">
<stop stop-color="#DB985B"/>
<stop offset="1" stop-color="#C62744"/>
</linearGradient>
</defs>
</svg>
