<svg width="26" height="23" viewBox="0 0 26 23" fill="none" xmlns="http://www.w3.org/2000/svg">
<path d="M25.4825 10.608C25.4816 9.98355 25.2969 9.37341 24.9518 8.85462C24.6066 8.33582 24.1166 7.93165 23.5434 7.69314C22.9703 7.45464 22.3398 7.39251 21.7316 7.51459C21.1234 7.63667 20.5647 7.9375 20.1262 8.37907C18.3712 7.23882 16.13 6.51264 13.6687 6.39937C13.6683 5.88227 13.7835 5.37172 14.006 4.90565C14.2285 4.43958 14.5524 4.03 14.9537 3.70733C15.3543 3.38234 15.8226 3.15255 16.3236 3.0351C16.8246 2.91764 17.3455 2.91555 17.8475 3.02897L17.9875 3.06044C17.9875 3.09568 17.9825 3.13092 17.9825 3.16615C17.9811 3.80113 18.2074 4.41527 18.6198 4.89573C19.0321 5.37618 19.6028 5.69067 20.227 5.78142C20.8512 5.87216 21.4869 5.73306 22.0174 5.38967C22.5479 5.04628 22.9375 4.52168 23.1146 3.91225C23.2917 3.30283 23.2444 2.64952 22.9815 2.07238C22.7185 1.49524 22.2575 1.03303 21.6831 0.770699C21.1088 0.508363 20.4598 0.463519 19.8552 0.644405C19.2507 0.825292 18.7313 1.21976 18.3925 1.75532L18.1412 1.69869C17.4413 1.54045 16.7149 1.54338 16.0162 1.70726C15.3176 1.87113 14.6647 2.19172 14.1062 2.64511C13.5466 3.09513 13.095 3.66635 12.7849 4.31633C12.4748 4.9663 12.3141 5.67829 12.315 6.39937C9.85249 6.51264 7.61249 7.23882 5.85874 8.37781C5.53984 8.0537 5.15499 7.80299 4.73068 7.64291C4.30636 7.48283 3.85264 7.41719 3.40073 7.4505C2.94881 7.48381 2.50942 7.61529 2.11279 7.83588C1.71615 8.05647 1.37168 8.36094 1.10306 8.72836C0.834438 9.09577 0.64805 9.51741 0.556712 9.96427C0.465374 10.4111 0.471254 10.8726 0.573947 11.317C0.67664 11.7613 0.87371 12.178 1.1516 12.5384C1.42949 12.8987 1.78161 13.1942 2.18374 13.4045C2.10749 13.7946 2.06749 14.1948 2.06749 14.6026C2.06749 19.1409 6.95749 22.8209 12.9925 22.8209C19.025 22.8209 23.9162 19.1409 23.9162 14.6026C23.9162 14.1948 23.8762 13.7959 23.8 13.4045C24.3073 13.1374 24.7323 12.7356 25.0289 12.2426C25.3255 11.7497 25.4824 11.1843 25.4825 10.608ZM20.6012 1.8925C20.93 1.90291 21.2419 2.04172 21.4708 2.27956C21.6997 2.5174 21.8277 2.83559 21.8277 3.16678C21.8277 3.49798 21.6997 3.81617 21.4708 4.05401C21.2419 4.29185 20.93 4.43066 20.6012 4.44107C20.2725 4.43066 19.9606 4.29185 19.7317 4.05401C19.5028 3.81617 19.3748 3.49798 19.3748 3.16678C19.3748 2.83559 19.5028 2.5174 19.7317 2.27956C19.9606 2.04172 20.2725 1.90291 20.6012 1.8925ZM1.85374 10.6092C1.85374 9.61874 2.65374 8.81327 3.63749 8.81327C4.05874 8.81327 4.44499 8.96178 4.74999 9.20845C3.79624 10.0328 3.05749 11.0019 2.59874 12.0654C2.36848 11.8998 2.18078 11.6813 2.05121 11.4281C1.92164 11.1748 1.85394 10.8941 1.85374 10.6092ZM19.9062 19.3222C18.075 20.7003 15.6187 21.4592 12.9912 21.4592C10.3637 21.4592 7.90749 20.7003 6.07749 19.3222C4.36499 18.0347 3.42124 16.3583 3.42124 14.6026C3.42124 12.8482 4.36374 11.173 6.07749 9.88303C7.90749 8.50618 10.3625 7.74853 12.9912 7.74853C15.62 7.74853 18.075 8.50618 19.9062 9.88429C21.6187 11.173 22.5625 12.8482 22.5625 14.6039C22.5625 16.3583 21.6187 18.0347 19.9062 19.3234V19.3222ZM23.3837 12.0641C22.925 11.0006 22.1862 10.0328 21.2325 9.20845C21.5375 8.96178 21.925 8.81327 22.345 8.81327C23.3287 8.81327 24.1287 9.61874 24.1287 10.6092C24.1287 11.2083 23.835 11.7394 23.3837 12.0641Z" fill="white"/>
<path d="M9.00126 14.1217C9.79034 14.1217 10.43 13.4776 10.43 12.6832C10.43 11.8887 9.79034 11.2446 9.00126 11.2446C8.21218 11.2446 7.57251 11.8887 7.57251 12.6832C7.57251 13.4776 8.21218 14.1217 9.00126 14.1217Z" fill="white"/>
<path d="M16.9812 14.1217C17.7703 14.1217 18.41 13.4776 18.41 12.6832C18.41 11.8887 17.7703 11.2446 16.9812 11.2446C16.1922 11.2446 15.5525 11.8887 15.5525 12.6832C15.5525 13.4776 16.1922 14.1217 16.9812 14.1217Z" fill="white"/>
<path d="M16.3762 16.1785C15.3717 17.101 14.0608 17.6119 12.7012 17.6107C11.9514 17.6139 11.2092 17.46 10.5216 17.1588C9.83409 16.8577 9.21628 16.4158 8.70747 15.8613C8.58513 15.729 8.4156 15.651 8.23615 15.6445C8.0567 15.638 7.88204 15.7035 7.75059 15.8267C7.61914 15.9499 7.54167 16.1206 7.53523 16.3012C7.52878 16.4819 7.59388 16.6578 7.71621 16.7901C8.35468 17.4779 9.12649 18.0266 9.98391 18.4022C10.8413 18.7778 11.7662 18.9723 12.7012 18.9737C14.3985 18.9753 16.035 18.3373 17.2887 17.1853C17.3544 17.125 17.4076 17.0522 17.4453 16.9712C17.4831 16.8902 17.5046 16.8024 17.5086 16.713C17.5127 16.6236 17.4992 16.5343 17.469 16.4501C17.4388 16.366 17.3924 16.2886 17.3325 16.2225C17.2725 16.1564 17.2003 16.1028 17.1198 16.0648C17.0393 16.0268 16.9522 16.0052 16.8634 16.0011C16.7746 15.997 16.6859 16.0106 16.6023 16.041C16.5187 16.0714 16.4419 16.1181 16.3762 16.1785Z" fill="white"/>
</svg>
