<svg width="24" height="24" viewBox="0 0 24 24" fill="none" xmlns="http://www.w3.org/2000/svg">
<path fill-rule="evenodd" clip-rule="evenodd" d="M11.9999 6.5C12.5967 6.5 13.169 6.26295 13.5909 5.84099C14.0129 5.41903 14.2499 4.84674 14.2499 4.25C14.2499 3.65326 14.0129 3.08097 13.5909 2.65901C13.169 2.23705 12.5967 2 11.9999 2C11.4032 2 10.8309 2.23705 10.4089 2.65901C9.98697 3.08097 9.74992 3.65326 9.74992 4.25C9.74992 4.84674 9.98697 5.41903 10.4089 5.84099C10.8309 6.26295 11.4032 6.5 11.9999 6.5ZM18.9599 7.72C19.0342 7.97461 19.0043 8.24829 18.8767 8.48083C18.7492 8.71338 18.5345 8.88574 18.2799 8.96C17.0919 9.306 16.0189 9.567 14.9999 9.7405V21C15.0002 21.2576 14.9011 21.5053 14.7233 21.6916C14.5454 21.878 14.3025 21.9885 14.0452 22.0001C13.7879 22.0118 13.536 21.9237 13.342 21.7543C13.1481 21.5848 13.0269 21.347 13.0039 21.0905L12.5039 15.5905C12.5012 15.5604 12.4999 15.5302 12.4999 15.5H11.4999C11.5 15.5302 11.4986 15.5604 11.4959 15.5905L10.9959 21.0905C10.9729 21.347 10.8518 21.5848 10.6578 21.7543C10.4638 21.9237 10.2119 22.0118 9.95463 22.0001C9.69732 21.9885 9.45443 21.878 9.27658 21.6916C9.09873 21.5053 8.99962 21.2576 8.99992 21V9.722C7.98342 9.547 6.91442 9.2915 5.73242 8.9635C5.60466 8.92948 5.48492 8.87046 5.38012 8.78986C5.27532 8.70926 5.18754 8.60868 5.12186 8.49394C5.05618 8.37919 5.01391 8.25257 4.99749 8.12138C4.98107 7.99019 4.99082 7.85705 5.02619 7.72966C5.06156 7.60227 5.12184 7.48315 5.20354 7.37921C5.28524 7.27527 5.38674 7.18855 5.50218 7.12409C5.61761 7.05963 5.74467 7.0187 5.87603 7.00366C6.00738 6.98863 6.14041 6.99979 6.26742 7.0365C8.57142 7.6755 10.3024 7.9925 12.0044 8C13.7024 8.0075 15.4294 7.7075 17.7199 7.04C17.9745 6.96574 18.2482 6.99566 18.4808 7.12319C18.7133 7.25071 18.8857 7.46539 18.9599 7.72Z" fill="#C4C4C4"/>
</svg>
