<svg width="20" height="20" viewBox="0 0 20 20" fill="none" xmlns="http://www.w3.org/2000/svg">
<g clip-path="url(#clip0_277_902)">
<path d="M10.5139 12.1875C11.6285 10.6211 14.1667 6.82031 14.1667 4.6875C14.1667 2.09766 12.3021 0 10 0C7.69792 0 5.83333 2.09766 5.83333 4.6875C5.83333 6.82031 8.37153 10.6211 9.48611 12.1875C9.75347 12.5625 10.25 12.5625 10.5139 12.1875ZM14.4444 19.6484L19.4757 17.3828C19.7917 17.2422 20 16.8945 20 16.5117V5.9375C20 5.27344 19.4062 4.82031 18.8576 5.06641L14.8299 6.87891C14.8125 6.92578 14.7951 6.97656 14.7778 7.02344C14.6771 7.28906 14.566 7.55859 14.4444 7.82813V19.6484ZM0.524306 7.31641C0.208333 7.46094 0 7.80469 0 8.1875V18.7656C0 19.4297 0.59375 19.8828 1.14236 19.6367L5.55556 17.6484V7.82813C5.43403 7.55859 5.32292 7.28906 5.22222 7.02344C5.02778 6.50781 4.86111 5.95313 4.77778 5.40234L0.520833 7.31641H0.524306ZM13.3333 9.96094C12.6215 11.1836 11.8646 12.2891 11.3819 12.9688C10.6701 13.9688 9.32986 13.9688 8.61806 12.9688C8.13542 12.2891 7.37847 11.1836 6.66667 9.96094V17.5547L13.3333 19.6992V9.96094Z" fill="#C4C4C4"/>
</g>
<defs>
<clipPath id="clip0_277_902">
<rect width="20" height="20" fill="white"/>
</clipPath>
</defs>
</svg>
