<svg width="22" height="18" viewBox="0 0 22 18" fill="none" xmlns="http://www.w3.org/2000/svg">
<path fill-rule="evenodd" clip-rule="evenodd" d="M0.791992 5.70167C0.791992 2.55167 3.55699 0.125 6.80032 0.125C8.47216 0.125 9.94449 0.909 11.0003 1.924C12.0562 0.909 13.5273 0.125 15.2003 0.125C18.4437 0.125 21.2087 2.55167 21.2087 5.70167C21.2087 7.86 20.2882 9.757 19.013 11.3623C17.7413 12.963 16.0753 14.3222 14.4817 15.427C13.8715 15.8493 13.2567 16.2378 12.692 16.5248C12.1635 16.7943 11.5545 17.0417 11.0003 17.0417C10.4462 17.0417 9.83833 16.7943 9.30866 16.5248C8.68924 16.1982 8.09181 15.8315 7.52016 15.427C5.92533 14.3222 4.26049 12.963 2.98766 11.3623C1.71249 9.757 0.791992 7.86 0.791992 5.70167ZM6.80032 1.875C4.37366 1.875 2.54199 3.66 2.54199 5.70167C2.54199 7.3385 3.23733 8.86333 4.35733 10.2727C5.47966 11.6843 6.99049 12.9315 8.51649 13.9885C9.09399 14.3887 9.63649 14.7282 10.1032 14.9662C10.6025 15.2205 10.8918 15.2917 11.0003 15.2917C11.1088 15.2917 11.3982 15.2205 11.8987 14.965C12.4481 14.6741 12.9781 14.3479 13.4853 13.9885C15.0102 12.9315 16.521 11.6855 17.6433 10.2727C18.7633 8.86333 19.4587 7.3385 19.4587 5.70167C19.4587 3.66 17.627 1.875 15.2003 1.875C13.8073 1.875 12.5053 2.70683 11.6945 3.76383C11.6128 3.87031 11.5077 3.95656 11.3873 4.01591C11.2669 4.07527 11.1345 4.10614 11.0003 4.10614C10.8661 4.10614 10.7337 4.07527 10.6133 4.01591C10.493 3.95656 10.3879 3.87031 10.3062 3.76383C9.49533 2.70683 8.19449 1.875 6.80032 1.875Z" fill="#C4C4C4"/>
</svg>
