<svg width="30" height="29" viewBox="0 0 30 29" fill="none" xmlns="http://www.w3.org/2000/svg">
<path d="M17.165 25.8764L17.8425 24.8132L16.23 23.9265L15.5513 24.9896L17.165 25.8764ZM12.1575 24.8132L12.835 25.8764L14.4475 24.9896L13.7712 23.9265L12.1575 24.8132ZM15.5513 24.9896C15.4928 25.0764 15.4116 25.148 15.3151 25.1977C15.2187 25.2473 15.1103 25.2734 15 25.2734C14.8897 25.2734 14.7813 25.2473 14.6849 25.1977C14.5884 25.148 14.5072 25.0764 14.4487 24.9896L12.835 25.8764C13.8012 27.3934 16.1975 27.3934 17.165 25.8764L15.5513 24.9896ZM13.125 3.80056H16.875V2.05957H13.125V3.80056ZM26.5625 12.7957V13.9564H28.4375V12.7957H26.5625ZM3.4375 13.9564V12.7957H1.5625V13.9564H3.4375ZM1.5625 13.9564C1.5625 15.2969 1.5625 16.345 1.625 17.1911C1.6875 18.0442 1.81625 18.7545 2.11 19.4115L3.8425 18.7453C3.65875 18.3367 3.55125 17.8376 3.495 17.0727C3.4375 16.2997 3.4375 15.3201 3.4375 13.9564H1.5625ZM9.75375 21.7816C8.18375 21.756 7.36125 21.6632 6.71625 21.4148L6 23.0235C7.00625 23.4111 8.15125 23.4982 9.72125 23.5237L9.75375 21.7816ZM2.11 19.4115C2.47121 20.2212 3.00065 20.957 3.6681 21.5767C4.33555 22.1965 5.12793 22.6881 6 23.0235L6.71625 21.4148C5.4146 20.9141 4.38168 19.9539 3.8425 18.7453L2.11 19.4115ZM26.5625 13.9564C26.5625 15.3201 26.5625 16.2997 26.505 17.0727C26.4488 17.8376 26.3412 18.3367 26.1588 18.7453L27.89 19.4115C28.1838 18.7545 28.3125 18.0442 28.3763 17.1911C28.4388 16.345 28.4375 15.2969 28.4375 13.9564H26.5625ZM20.2787 23.5214C21.8487 23.497 22.9938 23.4111 24 23.0235L23.2825 21.4148C22.6388 21.6632 21.8162 21.756 20.2475 21.7816L20.2787 23.5214ZM26.1588 18.7453C25.6196 19.9539 24.5854 20.9141 23.2838 21.4148L24 23.0235C24.8721 22.6881 25.6645 22.1965 26.3319 21.5767C26.9993 20.957 27.5288 20.2212 27.89 19.4115L26.1588 18.7453ZM16.875 3.80056C18.9387 3.80056 20.4212 3.80056 21.5775 3.90386C22.72 4.00484 23.4463 4.19751 24.0263 4.52714L25.005 3.04265C24.0812 2.51803 23.0337 2.28358 21.755 2.16983C20.49 2.05841 18.9025 2.05957 16.875 2.05957V3.80056ZM28.4375 12.7957C28.4375 10.9131 28.4375 9.44023 28.3175 8.26447C28.1962 7.07712 27.9438 6.10332 27.3787 5.24675L25.7787 6.15555C26.135 6.6941 26.3425 7.36844 26.4512 8.43045C26.5612 9.5029 26.5625 10.8794 26.5625 12.7957H28.4375ZM24.025 4.52714C24.7402 4.93372 25.3416 5.49174 25.78 6.15555L27.3787 5.24675C26.786 4.34837 25.9725 3.59307 25.005 3.04265L24.025 4.52714ZM13.125 2.05957C11.0975 2.05957 9.51125 2.05957 8.245 2.16983C6.96625 2.28358 5.9175 2.51803 4.995 3.04265L5.97375 4.5283C6.55375 4.19751 7.28 4.00484 8.42375 3.90386C9.57875 3.80173 11.0612 3.80056 13.125 3.80056V2.05957ZM3.4375 12.7957C3.4375 10.8794 3.4375 9.5029 3.54875 8.42929C3.6575 7.36844 3.865 6.6941 4.22 6.15555L2.62125 5.24791C2.05625 6.10448 1.80375 7.07712 1.68125 8.26447C1.5625 9.44139 1.5625 10.9131 1.5625 12.7957H3.4375ZM4.995 3.04265C4.02747 3.59307 3.21404 4.34953 2.62125 5.24791L4.22125 6.15555C4.65892 5.492 5.25944 4.934 5.97375 4.52714L4.995 3.04265ZM13.77 23.9265C13.5175 23.5283 13.295 23.1767 13.0775 22.9004C12.8538 22.5975 12.5632 22.3423 12.225 22.1518L11.2825 23.6572C11.3413 23.6897 11.4225 23.7477 11.5625 23.9265C11.7137 24.1191 11.885 24.3861 12.1575 24.8132L13.77 23.9265ZM9.72125 23.5214C10.2712 23.5307 10.6175 23.5376 10.8825 23.5643C11.13 23.5899 11.2262 23.627 11.2825 23.6572L12.225 22.1518C11.875 21.9718 11.4876 21.8633 11.0888 21.8338C10.7163 21.7955 10.2688 21.7897 9.75375 21.7816L9.72125 23.5214ZM17.8425 24.8132C18.115 24.3872 18.2862 24.1191 18.4375 23.9265C18.5775 23.7477 18.6588 23.6897 18.7175 23.6572L17.775 22.1518C17.4125 22.3491 17.15 22.6103 16.9225 22.9004C16.7063 23.1767 16.4825 23.5272 16.2288 23.9265L17.8425 24.8132ZM20.2475 21.7816C19.7325 21.7897 19.2838 21.7955 18.9112 21.8338C18.5225 21.8744 18.1413 21.9545 17.775 22.1518L18.7175 23.6572C18.7738 23.627 18.87 23.5899 19.1175 23.5643C19.3825 23.5376 19.73 23.5295 20.28 23.5214L20.2475 21.7816Z" fill="white"/>
<path d="M10 13.376H10.0112M14.9888 13.376H15M19.9888 13.376H20" stroke="white" stroke-width="2" stroke-linecap="round" stroke-linejoin="round"/>
</svg>
