<svg width="237" height="237" viewBox="0 0 237 237" fill="none" xmlns="http://www.w3.org/2000/svg">
<g clip-path="url(#clip0_550_18650)">
<path d="M118.5 237C183.946 237 237 183.946 237 118.5C237 53.0542 183.946 0 118.5 0C53.0543 0 0 53.0542 0 118.5C0 183.946 53.0543 237 118.5 237Z" fill="#131313"/>
<path d="M148.606 36.5869L146.307 27.7735L137.493 25.4775L146.307 23.1816L148.603 14.3682L150.899 23.1816L159.712 25.4775L150.899 27.7735L148.606 36.5869ZM55.5469 70.3334L54.0175 64.4603L48.1406 62.9272L54.0175 61.3979L55.5469 55.5209L57.08 61.3979L62.9531 62.9272L57.08 64.4603L55.5469 70.3334ZM37.0312 136.09L34.9279 128.013L26.8477 125.906L34.9279 123.803L37.0312 115.723L39.1346 123.803L47.2148 125.906L39.1346 128.013L37.0312 136.09ZM203.672 127.758L201.757 120.415L194.41 118.5L201.757 116.589L203.668 109.242L205.583 116.589L212.926 118.5L205.583 120.415L203.672 127.758ZM61.109 48.1443L59.961 43.7375L55.5543 42.5896L59.961 41.4416L61.109 37.0349L62.2569 41.4416L66.6637 42.5896L62.2569 43.7375L61.109 48.1443ZM196.729 188.37L195.292 182.86L189.785 181.424L195.292 179.991L196.729 174.48L198.162 179.991L203.672 181.424L198.162 182.86L196.729 188.37ZM185.16 75.9141L184.012 71.5074L179.605 70.3594L184.012 69.2114L185.16 64.8047L186.308 69.2114L190.715 70.3594L186.308 71.5074L185.16 75.9141Z" fill="white"/>
<path d="M87.553 178.017C107.275 178.017 123.262 162.03 123.262 142.308C123.262 122.586 107.275 106.599 87.553 106.599C67.8313 106.599 51.8438 122.586 51.8438 142.308C51.8438 162.03 67.8313 178.017 87.553 178.017Z" fill="#C56072"/>
<path d="M87.5527 106.599C83.7867 106.599 80.0502 107.225 76.4767 108.41C76.4471 108.554 76.3915 108.68 76.3915 108.831C76.3915 110.068 77.3914 111.065 78.6245 111.065H80.8575C81.4492 111.065 82.0167 111.3 82.4351 111.718C82.8536 112.136 83.0886 112.704 83.0886 113.296C83.0886 113.887 82.8536 114.455 82.4351 114.873C82.0167 115.292 81.4492 115.527 80.8575 115.527H76.3915C76.0983 115.526 75.8079 115.584 75.537 115.696C75.2661 115.808 75.0199 115.972 74.8128 116.18C74.6056 116.387 74.4415 116.634 74.3299 116.905C74.2182 117.176 74.1613 117.467 74.1622 117.76C74.1622 118.993 75.1584 119.989 76.3915 119.989H85.3198C86.5566 119.989 87.5527 120.989 87.5527 122.222C87.5537 122.516 87.4966 122.806 87.3848 123.078C87.2729 123.349 87.1084 123.596 86.9009 123.803C86.6934 124.011 86.4468 124.175 86.1754 124.287C85.9041 124.399 85.6133 124.456 85.3198 124.455H72.2255C71.9323 124.454 71.6418 124.511 71.3707 124.623C71.0996 124.734 70.8532 124.899 70.6457 125.106C70.4382 125.313 70.2737 125.559 70.1616 125.83C70.0495 126.101 69.992 126.391 69.9925 126.684C69.9925 127.921 70.9887 128.917 72.2255 128.917H78.9208C80.1576 128.917 81.15 129.914 81.15 131.15C81.1505 131.443 81.0932 131.733 80.9813 132.004C80.8695 132.275 80.7053 132.521 80.4982 132.728C80.2911 132.935 80.0451 133.099 79.7744 133.211C79.5038 133.323 79.2137 133.38 78.9208 133.38H76.6878C76.0956 133.38 75.5276 133.615 75.1088 134.034C74.69 134.452 74.4548 135.02 74.4548 135.613C74.4548 136.205 74.69 136.773 75.1088 137.192C75.5276 137.61 76.0956 137.846 76.6878 137.846H81.0834C81.6751 137.846 82.2426 138.081 82.661 138.499C83.0795 138.917 83.3145 139.485 83.3145 140.077C83.3145 140.668 83.0795 141.236 82.661 141.654C82.2426 142.073 81.6751 142.308 81.0834 142.308H69.5593C68.9675 142.308 68.4 142.543 67.9816 142.961C67.5632 143.38 67.3281 143.947 67.3281 144.539C67.3281 145.131 67.5632 145.698 67.9816 146.117C68.4 146.535 68.9675 146.77 69.5593 146.77H78.9208C80.1576 146.77 81.15 147.77 81.15 149.003C81.151 149.296 81.0941 149.587 80.9824 149.858C80.8708 150.129 80.7067 150.375 80.4995 150.583C80.2923 150.79 80.0462 150.955 79.7753 151.067C79.5044 151.179 79.214 151.237 78.9208 151.236H74.4548C73.8631 151.236 73.2956 151.471 72.8771 151.889C72.4587 152.308 72.2237 152.875 72.2237 153.467C72.2237 154.059 72.4587 154.627 72.8771 155.045C73.2956 155.463 73.8631 155.698 74.4548 155.698H78.9208C80.1576 155.698 81.15 156.695 81.15 157.931C81.1505 158.224 81.0932 158.514 80.9813 158.785C80.8695 159.055 80.7053 159.301 80.4982 159.509C80.2911 159.716 80.0451 159.88 79.7744 159.992C79.5038 160.104 79.2137 160.161 78.9208 160.161H71.9515C71.658 160.16 71.3672 160.217 71.0958 160.329C70.8244 160.44 70.5779 160.605 70.3703 160.813C70.1628 161.02 69.9983 161.266 69.8865 161.538C69.7746 161.809 69.7175 162.1 69.7185 162.393C69.7185 163.63 70.7146 164.627 71.9515 164.627H83.1719C84.4088 164.627 85.4012 165.623 85.4012 166.86C85.4017 167.153 85.3444 167.442 85.2325 167.713C85.1207 167.984 84.9565 168.23 84.7494 168.437C84.5423 168.644 84.2963 168.808 84.0256 168.92C83.7549 169.032 83.4648 169.089 83.1719 169.089H78.6208C78.3273 169.088 78.0365 169.145 77.7651 169.257C77.4938 169.369 77.2472 169.533 77.0397 169.74C76.8321 169.948 76.6677 170.195 76.5558 170.466C76.4439 170.737 76.3868 171.028 76.3878 171.322C76.3878 172.559 77.3877 173.551 78.6208 173.551H87.5453C88.7859 173.551 89.782 174.551 89.782 175.784C89.783 176.078 89.7259 176.368 89.614 176.64C89.5022 176.911 89.3377 177.158 89.1302 177.365C88.9226 177.573 88.6761 177.737 88.4047 177.849C88.1334 177.961 87.8426 178.018 87.549 178.017C97.0197 178.017 106.103 174.255 112.799 167.558C119.496 160.861 123.258 151.779 123.258 142.308C123.258 122.585 107.272 106.599 87.5527 106.599Z" fill="#B3253F"/>
<path d="M98.2776 108.253C98.0999 108.308 97.9221 108.349 97.7481 108.405C97.7222 108.546 97.6666 108.675 97.6666 108.831C97.6666 110.067 98.6628 111.06 99.8959 111.06H102.129C103.366 111.06 104.362 112.056 104.362 113.293C104.363 113.586 104.306 113.877 104.194 114.149C104.082 114.42 103.918 114.667 103.71 114.874C103.502 115.082 103.256 115.246 102.985 115.358C102.713 115.47 102.422 115.527 102.129 115.526H97.6666C97.3734 115.525 97.0829 115.582 96.8118 115.694C96.5407 115.805 96.2943 115.969 96.0868 116.177C95.8793 116.384 95.7148 116.63 95.6027 116.901C95.4906 117.172 95.4331 117.462 95.4336 117.755C95.4336 118.992 96.4298 119.988 97.6666 119.988H106.591C107.828 119.988 108.824 120.984 108.824 122.221C108.825 122.514 108.767 122.805 108.655 123.076C108.543 123.347 108.378 123.593 108.171 123.8C107.963 124.007 107.717 124.171 107.446 124.283C107.175 124.394 106.884 124.451 106.591 124.45H93.4969C93.2037 124.45 92.9133 124.507 92.6424 124.62C92.3714 124.732 92.1253 124.896 91.9182 125.104C91.711 125.311 91.5469 125.558 91.4353 125.829C91.3236 126.1 91.2666 126.39 91.2676 126.684C91.2676 127.92 92.2638 128.916 93.4969 128.916H100.192C100.784 128.916 101.351 129.151 101.77 129.57C102.188 129.988 102.423 130.556 102.423 131.148C102.423 131.739 102.188 132.307 101.77 132.725C101.351 133.144 100.784 133.379 100.192 133.379H97.9629C97.6694 133.378 97.3785 133.435 97.1072 133.547C96.8358 133.659 96.5893 133.823 96.3817 134.031C96.1742 134.238 96.0097 134.485 95.8979 134.756C95.786 135.027 95.7289 135.318 95.7299 135.612C95.7299 136.849 96.726 137.841 97.9629 137.841H102.355C103.592 137.841 104.588 138.841 104.588 140.074C104.589 140.367 104.532 140.658 104.42 140.93C104.308 141.201 104.143 141.448 103.936 141.655C103.728 141.863 103.482 142.027 103.21 142.139C102.939 142.251 102.648 142.308 102.355 142.307H90.8306C90.5374 142.306 90.2469 142.363 89.9758 142.475C89.7047 142.586 89.4583 142.75 89.2508 142.958C89.0433 143.165 88.8788 143.411 88.7667 143.682C88.6546 143.953 88.5972 144.243 88.5977 144.536C88.5977 145.773 89.5975 146.769 90.8306 146.769H100.192C101.429 146.769 102.425 147.765 102.425 149.002C102.426 149.295 102.368 149.586 102.256 149.857C102.144 150.128 101.979 150.374 101.772 150.581C101.564 150.788 101.318 150.952 101.047 151.064C100.776 151.176 100.485 151.233 100.192 151.232H95.7299C95.1377 151.232 94.5697 151.467 94.1509 151.885C93.7322 152.304 93.4969 152.872 93.4969 153.464C93.4969 154.057 93.7322 154.625 94.1509 155.043C94.5697 155.462 95.1377 155.697 95.7299 155.697H100.192C100.784 155.697 101.351 155.933 101.77 156.351C102.188 156.769 102.423 157.337 102.423 157.929C102.423 158.52 102.188 159.088 101.77 159.506C101.351 159.925 100.784 160.16 100.192 160.16H93.2303C92.9368 160.159 92.6459 160.216 92.3746 160.328C92.1032 160.44 91.8567 160.604 91.6491 160.812C91.4416 161.019 91.2771 161.266 91.1653 161.537C91.0534 161.808 90.9963 162.099 90.9973 162.393C90.9973 163.629 91.9934 164.622 93.2266 164.622H104.451C105.684 164.622 106.68 165.622 106.68 166.855C106.681 167.149 106.624 167.44 106.512 167.711C106.4 167.982 106.236 168.228 106.028 168.436C105.821 168.643 105.574 168.808 105.303 168.92C105.031 169.032 104.741 169.089 104.447 169.088H99.8959C99.3042 169.088 98.7367 169.323 98.3182 169.741C97.8998 170.16 97.6648 170.727 97.6648 171.319C97.6648 171.911 97.8998 172.478 98.3182 172.897C98.7367 173.315 99.3042 173.55 99.8959 173.55H104.758C110.355 170.473 115.023 165.951 118.278 160.456C121.533 154.961 123.254 148.694 123.263 142.307C123.261 134.711 120.838 127.314 116.345 121.19C111.851 115.066 105.523 110.534 98.2776 108.253Z" fill="#A51D36"/>
<path d="M149.447 118.5C156.02 118.5 161.349 113.171 161.349 106.598C161.349 100.025 156.02 94.6963 149.447 94.6963C142.874 94.6963 137.545 100.025 137.545 106.598C137.545 113.171 142.874 118.5 149.447 118.5Z" fill="#FC627E"/>
<path d="M149.447 94.6963C148.193 94.6995 146.946 94.9031 145.755 95.2998C145.748 95.3479 145.73 95.3887 145.73 95.4406C145.73 95.8553 146.063 96.1812 146.47 96.1812H147.215C147.412 96.1812 147.602 96.2599 147.742 96.3998C147.882 96.5397 147.961 96.7294 147.961 96.9273C147.961 97.1252 147.882 97.3149 147.742 97.4549C147.602 97.5948 147.412 97.6734 147.215 97.6734H145.73C145.533 97.6734 145.344 97.7519 145.205 97.8911C145.065 98.0303 144.987 98.219 144.987 98.4159C144.987 98.6128 145.065 98.8017 145.205 98.941C145.344 99.0802 145.533 99.1584 145.73 99.1584H148.703C148.901 99.1584 149.09 99.2369 149.229 99.3765C149.369 99.5161 149.447 99.7055 149.447 99.9029C149.447 100.1 149.369 100.289 149.229 100.429C149.09 100.569 148.901 100.647 148.703 100.647H144.341C144.143 100.647 143.954 100.725 143.815 100.865C143.675 101.005 143.597 101.194 143.597 101.391C143.597 101.589 143.675 101.778 143.815 101.918C143.954 102.057 144.143 102.136 144.341 102.136H146.574C146.771 102.136 146.961 102.214 147.1 102.354C147.24 102.493 147.318 102.683 147.318 102.88C147.318 103.077 147.24 103.267 147.1 103.406C146.961 103.546 146.771 103.624 146.574 103.624H145.833C145.636 103.624 145.447 103.703 145.307 103.842C145.167 103.982 145.089 104.171 145.089 104.369C145.089 104.566 145.167 104.755 145.307 104.895C145.447 105.035 145.636 105.113 145.833 105.113H147.289C147.485 105.113 147.674 105.191 147.814 105.331C147.953 105.47 148.031 105.659 148.031 105.856C148.031 106.053 147.953 106.241 147.814 106.381C147.674 106.52 147.485 106.598 147.289 106.598H143.448C143.251 106.598 143.062 106.676 142.922 106.816C142.783 106.956 142.704 107.145 142.704 107.342C142.704 107.54 142.783 107.729 142.922 107.869C143.062 108.008 143.251 108.087 143.448 108.087H146.574C146.771 108.087 146.961 108.165 147.1 108.305C147.24 108.444 147.318 108.634 147.318 108.831C147.318 109.028 147.24 109.218 147.1 109.357C146.961 109.497 146.771 109.575 146.574 109.575H145.085C144.888 109.575 144.698 109.654 144.559 109.793C144.419 109.933 144.341 110.122 144.341 110.32C144.341 110.517 144.419 110.706 144.559 110.846C144.698 110.986 144.888 111.064 145.085 111.064H146.574C146.771 111.064 146.961 111.142 147.1 111.282C147.24 111.422 147.318 111.611 147.318 111.808C147.318 112.006 147.24 112.195 147.1 112.335C146.961 112.474 146.771 112.553 146.574 112.553H144.248C144.051 112.553 143.863 112.631 143.723 112.77C143.584 112.909 143.506 113.098 143.506 113.295C143.506 113.492 143.584 113.681 143.723 113.82C143.863 113.959 144.051 114.038 144.248 114.038H147.988C148.186 114.038 148.375 114.116 148.515 114.256C148.654 114.395 148.733 114.584 148.733 114.782C148.733 114.979 148.654 115.169 148.515 115.308C148.375 115.448 148.186 115.526 147.988 115.526H146.47C146.273 115.526 146.083 115.605 145.944 115.744C145.804 115.884 145.726 116.073 145.726 116.271C145.726 116.468 145.804 116.657 145.944 116.797C146.083 116.936 146.273 117.015 146.47 117.015H149.447C149.645 117.015 149.834 117.093 149.974 117.233C150.113 117.373 150.192 117.562 150.192 117.759C150.192 117.957 150.113 118.146 149.974 118.286C149.834 118.425 149.645 118.504 149.447 118.504C151.222 118.499 152.972 118.095 154.569 117.322C156.166 116.549 157.568 115.426 158.672 114.038H156.098C155.901 114.038 155.712 113.959 155.572 113.82C155.432 113.68 155.354 113.491 155.354 113.293C155.354 113.096 155.432 112.906 155.572 112.767C155.712 112.627 155.901 112.549 156.098 112.549H158.42C158.618 112.549 158.807 112.47 158.946 112.331C159.086 112.191 159.164 112.002 159.164 111.805C159.164 111.607 159.086 111.418 158.946 111.278C158.807 111.139 158.618 111.06 158.42 111.06H156.935C156.738 111.06 156.548 110.982 156.409 110.842C156.269 110.703 156.191 110.513 156.191 110.316C156.191 110.119 156.269 109.929 156.409 109.79C156.548 109.65 156.738 109.572 156.935 109.572H158.42C158.618 109.572 158.807 109.493 158.946 109.354C159.086 109.214 159.164 109.025 159.164 108.827C159.164 108.63 159.086 108.441 158.946 108.301C158.807 108.161 158.618 108.083 158.42 108.083L157.046 108.087H155.298C155.101 108.087 154.912 108.008 154.772 107.869C154.633 107.729 154.554 107.54 154.554 107.342C154.554 107.145 154.633 106.956 154.772 106.816C154.912 106.676 155.101 106.598 155.298 106.598H159.146C159.343 106.598 159.533 106.52 159.672 106.38C159.812 106.24 159.89 106.051 159.89 105.854C159.89 105.656 159.812 105.467 159.672 105.327C159.533 105.188 159.343 105.109 159.146 105.109H157.676C157.478 105.109 157.289 105.031 157.15 104.891C157.01 104.752 156.931 104.562 156.931 104.365C156.931 104.168 157.01 103.978 157.15 103.839C157.289 103.699 157.478 103.621 157.676 103.621H158.42C158.618 103.621 158.807 103.542 158.946 103.403C159.086 103.263 159.164 103.074 159.164 102.876C159.164 102.679 159.086 102.49 158.946 102.35C158.807 102.21 158.618 102.132 158.42 102.132L156.191 102.136C155.993 102.136 155.804 102.057 155.665 101.918C155.525 101.778 155.447 101.589 155.447 101.391C155.447 101.194 155.525 101.005 155.665 100.865C155.804 100.725 155.993 100.647 156.191 100.647H159.694C159.389 100.125 159.045 99.6276 158.665 99.1584H157.583C157.486 99.1584 157.39 99.1393 157.3 99.1021C157.21 99.0649 157.128 99.0104 157.06 98.9416C156.991 98.8729 156.936 98.7912 156.899 98.7014C156.862 98.6115 156.843 98.5152 156.843 98.4179C156.843 98.0921 157.072 97.8661 157.361 97.7661C155.194 95.798 152.375 94.7042 149.447 94.6963Z" fill="#F84E6D"/>
<path d="M87.5527 94.6769C96.756 94.6769 104.217 87.2162 104.217 78.0129C104.217 68.8097 96.756 61.3486 87.5527 61.3486C78.3494 61.3486 70.8887 68.8097 70.8887 78.0129C70.8887 87.2162 78.3494 94.6769 87.5527 94.6769Z" fill="#C56072"/>
<path d="M87.5527 94.6769C96.756 94.6769 104.217 87.2162 104.217 78.0129C104.217 68.8097 96.756 61.3486 87.5527 61.3486C78.3494 61.3486 70.8887 68.8097 70.8887 78.0129C70.8887 87.2162 78.3494 94.6769 87.5527 94.6769Z" fill="#C62744"/>
<path d="M87.5527 61.3682C87.2762 61.3682 87.011 61.4777 86.8154 61.6733C86.6199 61.8688 86.51 62.1343 86.51 62.4108C86.51 62.6874 86.6199 62.9525 86.8154 63.1481C87.011 63.3436 87.2762 63.4535 87.5527 63.4535H88.5954C88.7323 63.4535 88.8679 63.4804 88.9944 63.5328C89.1209 63.5852 89.2359 63.6621 89.3327 63.7589C89.4295 63.8557 89.5063 63.9707 89.5587 64.0972C89.6111 64.2237 89.6381 64.3589 89.6381 64.4959C89.6381 64.6328 89.6111 64.7686 89.5587 64.8951C89.5063 65.0216 89.4295 65.1366 89.3327 65.2334C89.2359 65.3302 89.1209 65.4071 88.9944 65.4595C88.8679 65.5119 88.7323 65.5385 88.5954 65.5385H84.9484C84.8058 65.5289 84.6628 65.5487 84.5283 65.5966C84.3937 65.6446 84.2704 65.72 84.166 65.8175C84.0616 65.915 83.9784 66.0328 83.9215 66.1639C83.8646 66.2949 83.8353 66.436 83.8353 66.5789C83.8353 66.7217 83.8646 66.8634 83.9215 66.9944C83.9784 67.1255 84.0616 67.2433 84.166 67.3408C84.2704 67.4384 84.3937 67.5137 84.5283 67.5617C84.6628 67.6096 84.8058 67.6288 84.9484 67.6192H88.3193C88.5958 67.6192 88.861 67.7294 89.0566 67.9249C89.2521 68.1205 89.362 68.3853 89.362 68.6619C89.362 68.9384 89.2521 69.2039 89.0566 69.3994C88.861 69.5949 88.5958 69.7045 88.3193 69.7045H86.5291C86.3865 69.6949 86.2435 69.7147 86.109 69.7626C85.9744 69.8106 85.8511 69.886 85.7467 69.9835C85.6423 70.081 85.5591 70.1988 85.5022 70.3299C85.4453 70.4609 85.416 70.602 85.416 70.7449C85.416 70.8877 85.4453 71.0294 85.5022 71.1604C85.5591 71.2915 85.6423 71.4093 85.7467 71.5068C85.8511 71.6044 85.9744 71.6798 86.109 71.7277C86.2435 71.7756 86.3865 71.7948 86.5291 71.7852H92.7709C93.0475 71.7852 93.3127 71.8954 93.5082 72.0909C93.7038 72.2865 93.8136 72.5513 93.8136 72.8279C93.8136 73.1044 93.7038 73.3699 93.5082 73.5654C93.3127 73.7609 93.0475 73.8705 92.7709 73.8705H82.344C82.2015 73.8609 82.0585 73.8807 81.9239 73.9286C81.7893 73.9766 81.666 74.052 81.5616 74.1495C81.4573 74.247 81.3741 74.3648 81.3172 74.4959C81.2603 74.6269 81.2309 74.768 81.2309 74.9109C81.2309 75.0537 81.2603 75.1954 81.3172 75.3264C81.3741 75.4575 81.4573 75.5753 81.5616 75.6728C81.666 75.7704 81.7893 75.8458 81.9239 75.8937C82.0585 75.9416 82.2015 75.9609 82.344 75.9512H88.7478C89.0243 75.9512 89.2895 76.0614 89.4851 76.2569C89.6806 76.4525 89.7905 76.7173 89.7905 76.9939C89.7905 77.2704 89.6806 77.5359 89.4851 77.7314C89.2895 77.9269 89.0243 78.0365 88.7478 78.0365H86.4624C86.3199 78.0269 86.1769 78.0467 86.0423 78.0946C85.9077 78.1426 85.7844 78.218 85.68 78.3155C85.5757 78.413 85.4925 78.5308 85.4356 78.6619C85.3787 78.7929 85.3493 78.934 85.3493 79.0769C85.3493 79.2197 85.3787 79.3614 85.4356 79.4924C85.4925 79.6235 85.5757 79.7413 85.68 79.8388C85.7844 79.9364 85.9077 80.0118 86.0423 80.0597C86.1769 80.1076 86.3199 80.1269 86.4624 80.1172H94.6992C94.9757 80.1172 95.2409 80.2274 95.4365 80.4229C95.632 80.6185 95.7419 80.8833 95.7419 81.1599C95.7419 81.4364 95.632 81.7019 95.4365 81.8974C95.2409 82.0929 94.9757 82.2025 94.6992 82.2025H81.368C81.2255 82.1929 81.0825 82.2127 80.9479 82.2606C80.8133 82.3086 80.69 82.384 80.5856 82.4815C80.4812 82.579 80.398 82.6968 80.3411 82.8279C80.2842 82.9589 80.2549 83.1 80.2549 83.2429C80.2549 83.3857 80.2842 83.5274 80.3411 83.6584C80.398 83.7895 80.4812 83.9073 80.5856 84.0048C80.69 84.1024 80.8133 84.1778 80.9479 84.2257C81.0825 84.2736 81.2255 84.2929 81.368 84.2832H90.7332C91.0097 84.2832 91.2749 84.3934 91.4705 84.5889C91.666 84.7845 91.7759 85.0493 91.7759 85.3259C91.7759 85.6024 91.666 85.8679 91.4705 86.0634C91.2749 86.2589 91.0097 86.3685 90.7332 86.3685H87.5527C87.4102 86.3589 87.2672 86.3787 87.1326 86.4266C86.998 86.4746 86.8747 86.55 86.7703 86.6475C86.666 86.7451 86.5827 86.8629 86.5259 86.9939C86.469 87.1249 86.4396 87.266 86.4396 87.4089C86.4396 87.5517 86.469 87.6934 86.5259 87.8244C86.5827 87.9555 86.666 88.0733 86.7703 88.1708C86.8747 88.2684 86.998 88.3438 87.1326 88.3917C87.2672 88.4396 87.4102 88.4589 87.5527 88.4492H93.8041C94.0806 88.4492 94.3458 88.5594 94.5414 88.7549C94.7369 88.9505 94.8468 89.2153 94.8468 89.4919C94.8468 89.7684 94.7369 90.0339 94.5414 90.2294C94.3458 90.4249 94.0806 90.5345 93.8041 90.5345H86.0196C85.8771 90.5249 85.7341 90.5447 85.5995 90.5927C85.4649 90.6406 85.3416 90.716 85.2372 90.8135C85.1329 90.9111 85.0497 91.0289 84.9928 91.1599C84.9359 91.2909 84.9065 91.432 84.9065 91.5749C84.9065 91.7177 84.9359 91.8594 84.9928 91.9904C85.0497 92.1215 85.1329 92.2393 85.2372 92.3368C85.3416 92.4344 85.4649 92.5098 85.5995 92.5577C85.7341 92.6056 85.8771 92.6249 86.0196 92.6152H88.4526C89.0287 92.6152 89.4953 93.0818 89.4953 93.6579C89.4953 94.1626 89.1096 94.553 88.6287 94.6482C92.8502 94.3728 96.8091 92.5034 99.7035 89.4181C102.598 86.3327 104.211 82.2623 104.217 78.0319C104.217 73.6123 102.461 69.3739 99.3359 66.2487C96.2108 63.1236 91.9723 61.3682 87.5527 61.3682Z" fill="#F15370"/>
<path d="M82.3444 92.5961C82.9203 92.5961 83.3871 92.1293 83.3871 91.5534C83.3871 90.9775 82.9203 90.5107 82.3444 90.5107C81.7686 90.5107 81.3018 90.9775 81.3018 91.5534C81.3018 92.1293 81.7686 92.5961 82.3444 92.5961Z" fill="#F15370"/>
<path d="M78.1784 84.264C78.7543 84.264 79.2211 83.7972 79.2211 83.2214C79.2211 82.6455 78.7543 82.1787 78.1784 82.1787C77.6026 82.1787 77.1357 82.6455 77.1357 83.2214C77.1357 83.7972 77.6026 84.264 78.1784 84.264Z" fill="#F15370"/>
<path d="M91.7185 78.0127C92.2943 78.0127 92.7612 77.5453 92.7612 76.9694C92.7612 76.3936 92.2943 75.9268 91.7185 75.9268C91.1426 75.9268 90.6758 76.3936 90.6758 76.9694C90.6758 77.5453 91.1426 78.0127 91.7185 78.0127Z" fill="#C62744"/>
<path d="M92.7614 65.5153C93.3373 65.5153 93.8041 65.0479 93.8041 64.4721C93.8041 63.8962 93.3373 63.4297 92.7614 63.4297C92.1856 63.4297 91.7188 63.8962 91.7188 64.4721C91.7188 65.0479 92.1856 65.5153 92.7614 65.5153Z" fill="#C62744"/>
<path d="M84.4291 70.7233C84.4291 70.9999 84.3193 71.2647 84.1237 71.4603C83.9282 71.6558 83.663 71.766 83.3864 71.766C83.1099 71.766 82.8447 71.6558 82.6491 71.4603C82.4536 71.2647 82.3437 70.9999 82.3438 70.7233C82.3437 70.4468 82.4536 70.1813 82.6491 69.9858C82.8447 69.7902 83.1099 69.6807 83.3864 69.6807C83.663 69.6807 83.9282 69.7902 84.1237 69.9858C84.3193 70.1813 84.4291 70.4468 84.4291 70.7233Z" fill="#F15370"/>
<path d="M95.8848 85.3018C95.8944 85.4444 95.8747 85.5875 95.8268 85.722C95.7788 85.8566 95.7038 85.9803 95.6062 86.0847C95.5087 86.1891 95.3907 86.2719 95.2597 86.3288C95.1287 86.3857 94.9873 86.4154 94.8445 86.4154C94.7016 86.4154 94.5603 86.3857 94.4292 86.3288C94.2982 86.2719 94.1802 86.1891 94.0827 86.0847C93.9851 85.9803 93.9101 85.8566 93.8621 85.722C93.8142 85.5875 93.7945 85.4444 93.8041 85.3018C93.822 85.0381 93.9394 84.7913 94.1325 84.6108C94.3256 84.4303 94.5801 84.3301 94.8445 84.3301C95.1088 84.3301 95.3633 84.4303 95.5564 84.6108C95.7495 84.7913 95.8669 85.0381 95.8848 85.3018Z" fill="#C62744"/>
<path d="M66.1301 104.276L65.1451 100.499L61.3679 99.5135L65.1451 98.5322L66.1301 94.7551L67.1115 98.5322L70.8886 99.5135L67.1115 100.499L66.1301 104.276ZM123.262 94.7551L122.277 90.9779L118.5 89.9929L122.277 89.0079L123.262 85.2306L124.247 89.0079L128.024 89.9929L124.247 90.9743L123.262 94.7551ZM142.311 142.366L141.326 138.589L137.549 137.604L141.326 136.623L142.307 132.845L143.292 136.623L147.069 137.604L143.292 138.589L142.311 142.366ZM128.024 180.457L127.039 176.679L123.262 175.694L127.039 174.709L128.024 170.932L129.009 174.709L132.786 175.694L129.009 176.679L128.024 180.457ZM137.545 66.1854L136.56 62.4084L132.783 61.4232L136.56 60.4382L137.545 56.6611L138.53 60.4382L142.307 61.4232L138.53 62.4084L137.545 66.1854ZM62.9529 197.383L61.9715 193.606L58.1943 192.621L61.9715 191.64L62.9566 187.863L63.9379 191.64L67.7151 192.621L63.9379 193.606L62.9529 197.383ZM140.718 215.899L139.733 212.122L135.956 211.141L139.733 210.156L140.718 206.378L141.704 210.156L145.481 211.141L141.704 212.122L140.718 215.899Z" fill="white"/>
</g>
<defs>
<clipPath id="clip0_550_18650">
<rect width="237" height="237" fill="white"/>
</clipPath>
</defs>
</svg>
