<svg width="60" height="70" viewBox="0 0 60 70" fill="none" xmlns="http://www.w3.org/2000/svg">
<path d="M25 10C20.0555 10 15.222 11.4662 11.1108 14.2133C6.99952 16.9603 3.79521 20.8648 1.90302 25.4329C0.0108321 30.0011 -0.484251 35.0277 0.480379 39.8773C1.44501 44.7268 3.82603 49.1814 7.32234 52.6777C10.8187 56.174 15.2732 58.555 20.1227 59.5196C24.9723 60.4843 29.9989 59.9892 34.5671 58.097C39.1352 56.2048 43.0397 53.0005 45.7867 48.8892C48.5338 44.778 50 39.9445 50 35C49.9926 28.3718 47.3564 22.0173 42.6695 17.3305C37.9827 12.6436 31.6282 10.0074 25 10ZM25 54.4444C21.1543 54.4444 17.3949 53.304 14.1973 51.1675C10.9996 49.0309 8.50739 45.9941 7.03569 42.4411C5.56398 38.8881 5.17892 34.9784 5.92918 31.2066C6.67945 27.4347 8.53136 23.9701 11.2507 21.2507C13.9701 18.5313 17.4347 16.6794 21.2066 15.9292C24.9784 15.1789 28.8881 15.564 32.4411 17.0357C35.9941 18.5074 39.0309 20.9996 41.1675 24.1972C43.304 27.3949 44.4444 31.1542 44.4444 35C44.4389 40.1553 42.3885 45.0979 38.7432 48.7432C35.0979 52.3885 30.1553 54.4389 25 54.4444ZM37.037 35C37.037 35.7367 36.7444 36.4432 36.2234 36.9642C35.7025 37.4851 34.996 37.7778 34.2593 37.7778H27.7778V44.2593C27.7778 44.996 27.4851 45.7025 26.9642 46.2234C26.4433 46.7444 25.7367 47.037 25 47.037C24.2633 47.037 23.5568 46.7444 23.0358 46.2234C22.5149 45.7025 22.2222 44.996 22.2222 44.2593V37.7778H15.7407C15.004 37.7778 14.2975 37.4851 13.7766 36.9642C13.2556 36.4432 12.963 35.7367 12.963 35C12.963 34.2633 13.2556 33.5567 13.7766 33.0358C14.2975 32.5149 15.004 32.2222 15.7407 32.2222H22.2222V25.7407C22.2222 25.004 22.5149 24.2975 23.0358 23.7766C23.5568 23.2556 24.2633 22.963 25 22.963C25.7367 22.963 26.4433 23.2556 26.9642 23.7766C27.4851 24.2975 27.7778 25.004 27.7778 25.7407V32.2222H34.2593C34.996 32.2222 35.7025 32.5149 36.2234 33.0358C36.7444 33.5567 37.037 34.2633 37.037 35Z" fill="#6C6764"/>
</svg>
