<svg width="44" height="44" viewBox="0 0 44 44" fill="none" xmlns="http://www.w3.org/2000/svg">
<path d="M2.51266 0.416019C2.2511 0.285199 1.95807 0.230411 1.66691 0.25789C1.37575 0.285368 1.09815 0.394009 0.865679 0.571454C0.633209 0.7489 0.455205 0.988026 0.351916 1.26163C0.248627 1.53524 0.224199 1.83234 0.281411 2.11914L4.66579 17.2754C4.74754 17.5578 4.90733 17.8115 5.12679 18.0072C5.34625 18.2029 5.61648 18.3327 5.90641 18.3816L23.6877 21.3598C24.5252 21.5254 24.5252 22.7254 23.6877 22.891L5.90641 25.8691C5.61648 25.9181 5.34625 26.0479 5.12679 26.2436C4.90733 26.4393 4.74754 26.693 4.66579 26.9754L0.281411 42.1316C0.224199 42.4185 0.248627 42.7156 0.351916 42.9892C0.455205 43.2628 0.633209 43.5019 0.865679 43.6793C1.09815 43.8568 1.37575 43.9654 1.66691 43.9929C1.95807 44.0204 2.2511 43.9656 2.51266 43.8348L43.1377 23.5223C43.3969 23.3924 43.6148 23.1929 43.7671 22.9462C43.9194 22.6995 44.0001 22.4153 44.0001 22.1254C44.0001 21.8355 43.9194 21.5513 43.7671 21.3046C43.6148 21.0579 43.3969 20.8584 43.1377 20.7285L2.51266 0.416019Z" fill="#C62744"/>
</svg>
