<svg width="30" height="31" viewBox="0 0 30 31" fill="none" xmlns="http://www.w3.org/2000/svg">
<path d="M11.4413 7.2906C13.025 4.43118 13.8163 3.00146 15 3.00146C16.1838 3.00146 16.975 4.43118 18.5588 7.2906L18.9688 8.03063C19.4188 8.84365 19.6438 9.25017 19.9938 9.51824C20.3438 9.78631 20.7813 9.88573 21.6563 10.0846L22.4513 10.2658C25.5263 10.9668 27.0626 11.3167 27.4288 12.501C27.7938 13.684 26.7463 14.9187 24.65 17.3867L24.1075 18.0248C23.5125 18.7258 23.2138 19.0769 23.08 19.5099C22.9463 19.9441 22.9913 20.4122 23.0813 21.3473L23.1638 22.1994C23.48 25.493 23.6388 27.1392 22.6813 27.8704C21.7238 28.6029 20.2838 27.9346 17.4063 26.6005L16.66 26.2557C15.8425 25.8756 15.4338 25.6868 15 25.6868C14.5663 25.6868 14.1575 25.8756 13.34 26.2557L12.595 26.6005C9.7163 27.9346 8.2763 28.6016 7.32005 27.8717C6.3613 27.1392 6.52005 25.493 6.8363 22.1994L6.9188 21.3486C7.0088 20.4122 7.0538 19.9441 6.9188 19.5111C6.7863 19.0769 6.48755 18.7258 5.89255 18.026L5.35005 17.3867C3.2538 14.9199 2.2063 13.6853 2.5713 12.501C2.93755 11.3167 4.47505 10.9656 7.55005 10.2658L8.34505 10.0846C9.2188 9.88573 9.65505 9.78631 10.0063 9.51824C10.3563 9.25017 10.5813 8.84365 11.0313 8.03063L11.4413 7.2906Z" stroke="white" stroke-width="1.5"/>
</svg>
