<svg width="40" height="42" viewBox="0 0 40 42" fill="none" xmlns="http://www.w3.org/2000/svg">
<path d="M16.75 12.3334C11.9617 12.3334 8.08334 16.2117 8.08334 21C8.08334 25.7884 11.9617 29.6667 16.75 29.6667C21.5383 29.6667 25.4167 25.7884 25.4167 21C25.4167 16.2117 21.5383 12.3334 16.75 12.3334ZM16.75 24.7917C16.1542 24.7917 15.6667 24.3042 15.6667 23.7084V19.375H14.3125C13.8683 19.375 13.5 19.0067 13.5 18.5625C13.5 18.1184 13.8683 17.75 14.3125 17.75H19.1875C19.6317 17.75 20 18.1184 20 18.5625C20 19.0067 19.6317 19.375 19.1875 19.375H17.8333V23.7084C17.8333 24.3042 17.3458 24.7917 16.75 24.7917ZM28.9375 12.0625L30.8333 12.9184C30.9279 12.9615 31.0081 13.0308 31.0643 13.1182C31.1205 13.2056 31.1504 13.3074 31.1504 13.4113C31.1504 13.5152 31.1205 13.6169 31.0643 13.7043C31.0081 13.7917 30.9279 13.8611 30.8333 13.9042L28.9375 14.76L28.0817 16.6667C28.0386 16.7613 27.9692 16.8414 27.8818 16.8977C27.7944 16.9539 27.6927 16.9838 27.5888 16.9838C27.4848 16.9838 27.3831 16.9539 27.2957 16.8977C27.2083 16.8414 27.1389 16.7613 27.0958 16.6667L26.24 14.7709L24.3333 13.915C24.2388 13.8719 24.1586 13.8026 24.1024 13.7152C24.0461 13.6278 24.0162 13.526 24.0162 13.4221C24.0162 13.3182 24.0461 13.2165 24.1024 13.1291C24.1586 13.0417 24.2388 12.9723 24.3333 12.9292L26.2292 12.0734L27.085 10.1667C27.1281 10.0721 27.1975 9.99195 27.2849 9.93573C27.3723 9.8795 27.474 9.84961 27.5779 9.84961C27.6818 9.84961 27.7836 9.8795 27.871 9.93573C27.9584 9.99195 28.0278 10.0721 28.0708 10.1667L28.9375 12.0625ZM28.9375 27.2292L30.8333 28.085C30.9279 28.1281 31.0081 28.1975 31.0643 28.2849C31.1205 28.3723 31.1504 28.474 31.1504 28.5779C31.1504 28.6819 31.1205 28.7836 31.0643 28.871C31.0081 28.9584 30.9279 29.0278 30.8333 29.0709L28.9375 29.9267L28.0817 31.8334C28.0386 31.9279 27.9692 32.0081 27.8818 32.0643C27.7944 32.1206 27.6927 32.1505 27.5888 32.1505C27.4848 32.1505 27.3831 32.1206 27.2957 32.0643C27.2083 32.0081 27.1389 31.9279 27.0958 31.8334L26.24 29.9375L24.3333 29.0817C24.2388 29.0386 24.1586 28.9692 24.1024 28.8818C24.0461 28.7944 24.0162 28.6927 24.0162 28.5888C24.0162 28.4849 24.0461 28.3831 24.1024 28.2957C24.1586 28.2083 24.2388 28.1389 24.3333 28.0959L26.2292 27.24L27.085 25.3334C27.1281 25.2388 27.1975 25.1586 27.2849 25.1024C27.3723 25.0462 27.474 25.0163 27.5779 25.0163C27.6818 25.0163 27.7836 25.0462 27.871 25.1024C27.9584 25.1586 28.0278 25.2388 28.0708 25.3334L28.9375 27.2292Z" fill="#F6C23D"/>
</svg>
