<svg width="27" height="24" viewBox="0 0 27 24" fill="none" xmlns="http://www.w3.org/2000/svg">
<path d="M3.25391 19V18C3.25391 15.7909 5.1958 14 7.59126 14H11.9286C14.3241 14 16.266 15.7909 16.266 18V19M16.266 11C18.0625 11 19.519 9.65685 19.519 8C19.519 6.34315 18.0625 5 16.266 5M22.772 19V18C22.772 15.7909 20.8301 14 18.4346 14H17.8925M13.0129 8C13.0129 9.65685 11.5565 11 9.75993 11C7.96334 11 6.50692 9.65685 6.50692 8C6.50692 6.34315 7.96334 5 9.75993 5C11.5565 5 13.0129 6.34315 13.0129 8Z" stroke="white" stroke-width="2" stroke-linecap="round" stroke-linejoin="round"/>
</svg>
